<?xml version="1.0" encoding="UTF-8"?>
<svg xmlns="http://www.w3.org/2000/svg" viewBox="0 0 492.6 620.33">
  <defs>
    <style>
      .cls-1 {
        fill: #e16917;
      }

      .cls-1, .cls-2, .cls-3, .cls-4, .cls-5, .cls-6, .cls-7, .cls-8, .cls-9, .cls-10, .cls-11, .cls-12, .cls-13, .cls-14, .cls-15, .cls-16 {
        stroke-width: 0px;
      }

      .cls-17 {
        fill: #25c3f4;
      }

      .cls-17, .cls-18 {
        stroke-width: 2px;
      }

      .cls-17, .cls-18, .cls-19, .cls-20, .cls-21, .cls-22, .cls-23, .cls-24, .cls-25, .cls-26, .cls-27, .cls-28, .cls-29, .cls-30, .cls-31, .cls-32, .cls-33 {
        stroke-linecap: round;
        stroke-linejoin: round;
      }

      .cls-17, .cls-19, .cls-21, .cls-23, .cls-24, .cls-25, .cls-26, .cls-28, .cls-29, .cls-31, .cls-32 {
        stroke: #3a1919;
      }

      .cls-18, .cls-34, .cls-20, .cls-27, .cls-30, .cls-33 {
        stroke: #c5b34b;
      }

      .cls-18, .cls-23, .cls-11, .cls-33 {
        fill: #ffeb64;
      }

      .cls-34 {
        stroke-miterlimit: 10;
      }

      .cls-34, .cls-14 {
        fill: #c5b34b;
      }

      .cls-35, .cls-36, .cls-16 {
        opacity: .5;
      }

      .cls-19, .cls-26, .cls-29 {
        stroke-width: 7px;
      }

      .cls-19, .cls-9 {
        fill: #fff771;
      }

      .cls-2, .cls-28 {
        fill: #a21e36;
      }

      .cls-20, .cls-22 {
        stroke-width: 5px;
      }

      .cls-20, .cls-22, .cls-5, .cls-27, .cls-29, .cls-30, .cls-31, .cls-32 {
        fill: none;
      }

      .cls-3 {
        fill: #ff9639;
      }

      .cls-21, .cls-6, .cls-25, .cls-26 {
        fill: #791628;
      }

      .cls-21, .cls-24, .cls-28, .cls-32 {
        stroke-width: 8px;
      }

      .cls-37 {
        isolation: isolate;
      }

      .cls-4, .cls-24 {
        fill: #c3beb6;
      }

      .cls-22 {
        stroke: #fff771;
      }

      .cls-23, .cls-31 {
        stroke-width: 4px;
      }

      .cls-25 {
        stroke-width: 7.57px;
      }

      .cls-7 {
        fill: #e9901b;
      }

      .cls-8 {
        fill: #fff;
      }

      .cls-27 {
        stroke-width: 4.37px;
      }

      .cls-10 {
        fill: #3a1919;
      }

      .cls-12 {
        fill: #1584ce;
      }

      .cls-13, .cls-16 {
        fill: #b53e4f;
      }

      .cls-15 {
        fill: #ffe04d;
      }

      .cls-30 {
        stroke-width: 3px;
      }

      .cls-36 {
        mix-blend-mode: screen;
      }

      .cls-33 {
        stroke-width: 3.64px;
      }
    </style>
  </defs>
  <g class="cls-37">
    <g id="_レイヤー_2" data-name="レイヤー 2">
      <g id="_レイヤー_1-2" data-name="レイヤー 1">
        <path class="cls-25" d="m395.99,342.18c1.3,11.55,64.17,115.91,81.82,123.6,0,0-41.2,47.48-127.69,51.34-84.47,3.77-127.58-23.39-169.88-50.12-49.41-31.23,55.02-136.63,126.09-152.04,11.97-2.6,69.49-10.86,89.67,27.22Z"/>
        <path class="cls-6" d="m142.68,249.14c6.66,9.82,5.09,39.1,10.69,48.39l-52.84,34.14c-6.68,5.51-26.89-5.04-29.19-15.36-3.06-13.73.48-30.7,15.25-45.2,30.85-30.27,54.01-25.03,56.08-21.96Z"/>
        <g class="cls-36">
          <path class="cls-10" d="m91.19,309.8h-20.77c.1,1.51.27,2.98.52,4.43h20.25v18.37c1.56.39,3.06.59,4.43.57v-18.94h31.89l6.86-4.43h-43.18Z"/>
          <polygon class="cls-10" points="104.42 322.45 102.65 322.45 102.65 330.3 107.08 327.44 107.08 326.88 107.94 326.88 114.8 322.45 107.08 322.45 104.42 322.45"/>
          <path class="cls-10" d="m79.74,322.45h-5.06c1.34,1.58,2.98,3.08,4.79,4.43h.27v.2c1.4,1.02,2.9,1.96,4.43,2.77v-7.41h-4.43Z"/>
          <path class="cls-10" d="m140.08,267.08h4.43v-14.25c-.39-1.04-.82-1.99-1.3-2.83h-25.74c-2.91,1.12-6.03,2.57-9.32,4.43h31.94v8.21h-12.02v11.61h-8.79v-11.61h-16.62v35.86h-18.47v-24.89c-1.64,1.79-3.11,3.61-4.43,5.45v23.87h27.34v-35.87h7.76v11.61h13.22v8.87h-13.22v15.38h30.15l6.86-4.43h-32.58v-6.52h13.22v-13.3h7.59v13.3h11.17c-.35-1.37-.67-2.85-.95-4.43h-5.78v-13.3h-12.02v-7.18h7.59Z"/>
          <path class="cls-10" d="m71.98,302.95v-7.89c-.73,2.65-1.21,5.29-1.45,7.89h1.45Z"/>
          <path class="cls-10" d="m95.62,263.05c-1.46,1.17-2.93,2.44-4.43,3.77v24.81h4.43v-28.58Z"/>
        </g>
        <path class="cls-3" d="m138.66,162.23l-12.06,13.03c-18.67,12.98-40.33,24.46-50.38,26.7-1.6.35-2.96,1-4.05,1.91-2.23,1.85-3.22,4.81-2.54,7.59.31,1.28.96,2.45,1.87,3.4,1.08,1.2,2.14,2.11,3.41,2.97,9.74,6.57,29.45,6.76,55.18-.11l6.85-1.83c-4.43-15.91-10.21-32.95,1.73-53.66Z"/>
        <path class="cls-1" d="m135.18,163.9l-12.06,13.03c-9.05,6.29-19.06,12.51-27.86,17.22,1.76,19.44-8.07,28.26-8.07,28.26,8.58-.37,28.22-.04,39.4-3.03l6.85-1.83c-4.43-15.91-10.21-32.95,1.73-53.66Z"/>
        <path class="cls-32" d="m138.66,162.23l-12.06,13.03c-18.67,12.98-40.33,24.46-50.38,26.7-1.6.35-2.96,1-4.05,1.91-2.23,1.85-3.22,4.81-2.54,7.59.31,1.28.96,2.45,1.87,3.4,1.08,1.2,2.14,2.11,3.41,2.97,9.74,6.57,29.45,6.76,55.18-.11l6.85-1.83c-4.43-15.91-10.21-32.95,1.73-53.66Z"/>
        <path class="cls-3" d="m368.42,469.88c-12.74,8.77-25.19,15.08-36.99,19.63l-.76,1.39c-26.78,49-84.91,86.67-135.21,87.62-25.07.45-44.5-8.97-54.87-26.42-13.76-23.13-35.28-31.54-49.43-27.9-10.35,2.67-16.51,11.39-16.92,23.93-.35,10.82,8.24,24.2,23.55,36.72,20.89,17.08,53.81,31.47,87.32,31.47,8.29,0,16.63-.88,24.82-2.82,69.54-16.47,133.22-70.69,154.85-131.86l3.76-11.86s-.09.06-.13.09Z"/>
        <path class="cls-1" d="m360.53,475.02c-24.9,56.7-85.15,105.65-150.6,121.15-8.19,1.94-16.53,2.82-24.82,2.82-33.51,0-66.43-14.39-87.32-31.47-11.47-9.38-19.16-19.24-22.16-28.14-.82,2.65-1.29,5.58-1.39,8.76-.35,10.82,8.24,24.2,23.55,36.72,20.89,17.08,53.81,31.47,87.32,31.47,8.29,0,16.63-.88,24.82-2.82,69.54-16.47,133.21-70.69,154.85-131.86l3.76-11.86s-.09.06-.13.09c-2.64,1.82-5.27,3.53-7.88,5.14Z"/>
        <path class="cls-32" d="m368.42,469.88c-12.74,8.77-25.19,15.08-36.99,19.63l-.76,1.39c-26.78,49-84.91,86.67-135.21,87.62-25.07.45-44.5-8.97-54.87-26.42-13.76-23.13-35.28-31.54-49.43-27.9-10.35,2.67-16.51,11.39-16.92,23.93-.35,10.82,8.24,24.2,23.55,36.72,20.89,17.08,53.81,31.47,87.32,31.47,8.29,0,16.63-.88,24.82-2.82,69.54-16.47,133.22-70.69,154.85-131.86l3.76-11.86s-.09.06-.13.09Z"/>
        <path id="silhouette" class="cls-15" d="m367.86,485.23c22.36-15.46,50.33-50.34,56.91-128.79,4.07-48.46-1.61-103.23-14.45-139.54-3.75-10.59-8.09-20.74-13.3-30.09-20.69-37.15-43.47-52.03-43.49-52.04-1.27-.97-2.55-1.92-3.86-2.85-1.76-1.27-3.55-2.52-5.4-3.72,0,0,0,0-.01,0,0,0,0,0-.01,0-20.79-13.31-44.21-20.45-69.62-21.22h0s0,0,0,0c-2.09-.06-4.2-.1-6.28-.1-60.51,0-124.79,33.19-149.15,79.31-19.36,36.66,8.84,39.43,10.97,41.87,10.71,9.58-22.11,115.97-22.11,115.97-17.14,1.99-46.18,14.14-49.9,41.83-.05.36,1.2,5.8,1.78,8.14.03.12.05.25.09.37.17.67.34,1.34.51,2.01-6.38-4.61-13.25-7.06-19.97-7.06-7.65,0-14.71,3.28-19.36,8.99-5.36,6.59-7.18,15.69-5.13,25.63,4.87,23.56,45.04,67.51,73.31,74.3,2.36.57,4.54.85,6.48.85,4.65,0,8.08-1.63,10.19-4.85,3.69-5.64,2.53-14.91.75-21.23,62.89,59.56,167.3,42.74,167.3,42.74h.4c14.57,0,31.18-1.36,56.24-10.77,25.06-9.42,37.12-19.72,37.12-19.72Z"/>
        <path class="cls-7" d="m423.1,276.4c-3.68-9.14-8.09-36.32-13.19-44.71-1.15-4.03-2.38-7.91-3.68-11.59-3.75-10.59-8.09-20.74-13.3-30.09-16.25-29.18-33.79-44.62-40.58-49.9,6.18,7.53,12.94,17.05,19.49,28.81,5.21,9.35,9.55,19.49,13.3,30.09,2.38,6.73,4.76,14.3,7.02,22.47-109.3,22.86-189.69,46.01-189.69,46.01-34.57-1.13-77.12-3.14-77.12-3.14,0,1.64-2.72,11.05-6.47,23.23-.34,1.44-.7,2.91-1.06,4.42-5.5,22.55-6.84,44.34-8.96,51.49-.96.16-1.96.35-2.99.57.11.03-18.89,10.03-18.89,10.03,10,12,36.93,26.55,118,38,74.02,7.52,135.55,50.76,172.7,22.64,13.05-9.88,14.37-14.82,14.37-14.82-1.92,46.11-24.65,61.2-42.37,73.44,0,0-12.06,10.31-37.12,19.72-25.06,9.42-56.63,10.77-56.63,10.77,0,0-111.41,10.81-174.3-48.74,1.78,6.31,2.94,15.59-.75,21.23-2.1,3.22-5.53,4.85-10.19,4.85-1.94,0-4.12-.29-6.48-.85-9.89-2.37-21.23-9.3-32.01-18.31,15.3,18.21,36.3,35.37,53.1,39.4,2.36.57,4.54.85,6.48.85,4.65,0,8.08-1.63,10.19-4.85,3.69-5.64,2.53-14.91.75-21.23,62.89,59.56,167.3,42.74,167.3,42.74h.4c14.57,0,31.18-1.36,56.24-10.77,25.06-9.42,37.12-19.72,37.12-19.72,19.89-13.75,55.51-53.34,58.42-127.88,1.31-33.66,6.53-52.6.91-84.15Z"/>
        <path class="cls-7" d="m342.5,136.64s35.5,47.1-39.24,74.24l93.76-24.07s-9.2-29.77-54.53-50.17Z"/>
        <path id="silhouette-2" data-name="silhouette" class="cls-32" d="m367.86,489.23c22.36-15.46,50.33-50.34,56.91-128.79,4.07-48.46-1.61-103.23-14.45-139.54-3.75-10.59-8.09-20.74-13.3-30.09-20.69-37.15-43.47-52.03-43.49-52.04-1.27-.97-2.55-1.92-3.86-2.85-1.76-1.27-3.55-2.52-5.4-3.72,0,0,0,0-.01,0,0,0,0,0-.01,0-20.79-13.31-44.21-20.45-69.62-21.22h0s0,0,0,0c-2.09-.06-4.2-.1-6.28-.1-52.51,0-123.04,25.67-147.39,71.79-19.36,36.66,7.02,45.01,9.15,47.44,10.71,9.58-22.05,117.91-22.05,117.91-17.14,1.99-46.18,14.14-49.9,41.83-.05.36,1.2,5.8,1.78,8.14.03.12.05.25.09.37.17.67.34,1.34.51,2.01-6.38-4.61-13.25-7.06-19.97-7.06-7.65,0-14.71,3.28-19.36,8.99-5.36,6.59-7.18,15.69-5.13,25.63,4.87,23.56,45.04,67.51,73.31,74.3,2.36.57,4.54.85,6.48.85,4.65,0,8.08-1.63,10.19-4.85,3.69-5.64,2.53-14.91.75-21.23,62.89,59.56,167.3,42.74,167.3,42.74h.4c14.57,0,31.18-1.36,56.24-10.77,25.06-9.42,37.12-19.72,37.12-19.72Z"/>
        <path class="cls-28" d="m203.56,248.63c-34.57-1.13-80.78-.99-80.78-.99,0,5.25-17.02,103.31-17.02,103.31,5.89,15.99,16.91,34.01,99.65,25.01l-1.85-127.33Z"/>
        <path class="cls-2" d="m119.79,235.22l2.54,18.36c.12.93.87,1.64,1.8,1.73l66.2,5.06s.03-.19.07-.54c1.3-11.03-6.82-20.95-17.88-22.01l-50.55-4.85c-1.28-.12-2.34.98-2.17,2.25Z"/>
        <g class="cls-35">
          <polygon class="cls-13" points="195.58 306.36 195.58 302.95 195.58 296.13 201.42 296.13 201.42 302.95 201.42 306.08 201.42 306.36 204.4 306.36 204.08 283.78 195.58 283.78 195.58 277.47 203.98 277.47 203.93 274.06 192.17 274.06 192.17 275.77 192.17 277.47 192.17 287.2 193.41 287.2 195.58 287.2 201.42 287.2 201.42 292.72 192.17 292.72 192.17 294.94 192.17 296.13 192.17 302.95 184.16 302.95 184.16 306.36 192.17 306.36 195.58 306.36"/>
          <polygon class="cls-13" points="204.48 311.37 184.16 311.37 184.16 314.78 204.53 314.78 204.48 311.37"/>
          <path class="cls-13" d="m195.58,260.36v-10.23h5.84v10.23h2.31l-.17-11.73c-3.69-.12-7.51-.23-11.39-.32v8.64h-8.02v3.41h11.43Z"/>
          <polygon class="cls-13" points="203.81 265.37 184.16 265.37 184.16 268.78 203.86 268.78 203.81 265.37"/>
          <path class="cls-13" d="m204.83,375.78h-9.25v-6.32h9.74l-.05-3.41h-13.1v11.16c4.02-.33,8.24-.72,12.66-1.2v-.24Z"/>
          <polygon class="cls-13" points="205.15 357.37 184.16 357.37 184.16 360.78 205.2 360.78 205.15 357.37"/>
          <polygon class="cls-13" points="195.58 352.36 195.58 348.95 195.58 342.13 201.42 342.13 201.42 348.95 201.42 352.08 201.42 352.36 205.07 352.36 205.02 348.95 204.83 348.95 204.83 342.13 204.92 342.13 204.87 338.72 204.83 338.72 204.83 335.76 204.74 329.78 195.58 329.78 195.58 323.47 204.65 323.47 204.6 320.06 192.17 320.06 192.17 321.77 192.17 323.47 192.17 333.2 193.41 333.2 195.58 333.2 201.42 333.2 201.42 338.72 192.17 338.72 192.17 340.94 192.17 342.13 192.17 348.95 184.16 348.95 184.16 352.36 192.17 352.36 195.58 352.36"/>
          <path class="cls-13" d="m126.31,241.2v27.59h21.03v-27.59h5.97v8.93h10.17v6.82h-10.17v11.83h30.85v-3.41h-27.44v-5.01h10.17v-10.23h5.84v10.23h11.43v-3.41h-8.02v-10.23h-9.25v-5.52h9.25v-2.68c-1.17-.33-2.38-.57-3.63-.69l-.36-.03h-8.68v8.93h-6.76v-8.93h-12.79v27.59h-14.21v-27.59h-9.58l.47,3.41h5.69Z"/>
          <path class="cls-13" d="m119.89,314.78h.45v-11.83h-6.35c-.19,1.14-.39,2.28-.58,3.41h3.52v5.01h-4.37c-.2,1.15-.39,2.28-.58,3.41h7.91Z"/>
          <path class="cls-13" d="m153.31,302.95v11.83h30.85v-3.41h-27.44v-5.01h10.17v-10.23h5.84v10.23h11.43v-3.41h-8.02v-10.23h-9.25v-5.52h9.25v-13.14h-57.32c-.18,1.12-.37,2.25-.56,3.41h16.86v28.61h3.41v-28.61h34.2v6.32h-9.25v8.93h-6.76v-8.93h-12.79v27.59h-14.21v-27.59h-12.51c-.09.55-.18,1.11-.28,1.66v7.27h-1.22c-.19,1.13-.38,2.27-.57,3.41h5.2v-8.93h5.97v27.59h21.03v-27.59h5.97v8.93h10.17v6.82h-10.17Z"/>
          <polygon class="cls-13" points="138.53 234.56 135.12 234.23 135.12 260.08 138.53 260.08 138.53 234.56"/>
          <path class="cls-13" d="m120.34,268.78v-4.14c-.21,1.32-.43,2.71-.67,4.14h.67Z"/>
          <path class="cls-13" d="m135.12,366.06h-19.84c1.35,1.19,2.87,2.34,4.63,3.41h15.21v5.91c1.09.26,2.23.5,3.41.73v-6.64h34.2v6.32h-9.25v2.56c3.93.05,8.15,0,12.66-.17v-12.12h-41.02Z"/>
          <path class="cls-13" d="m145.29,375.78h-1.36v1.21c3.84.53,8.08.92,12.79,1.14v-2.36h-11.43Z"/>
          <path class="cls-13" d="m108.55,357.37c.61,1.15,1.28,2.29,2.06,3.41h9.73v-11.83h-10.17v-6.82h10.17v-8.93h5.97v27.59h21.03v-27.59h5.97v8.93h10.17v6.82h-10.17v11.83h30.85v-3.41h-27.44v-5.01h10.17v-10.23h5.84v10.23h11.43v-3.41h-8.02v-10.23h-9.25v-5.52h9.25v-13.14h-65.06c-.2,1.15-.39,2.29-.58,3.41h24.62v28.61h3.41v-28.61h34.2v6.32h-9.25v8.93h-6.76v-8.93h-12.79v27.59h-14.21v-27.59h-12.79v8.93h-6.76v-8.93h-.76c-1.08,6.31-2.01,11.67-2.66,15.42v7.15h10.17v5.01h-8.38Z"/>
        </g>
        <path class="cls-10" d="m180.22,172.19c-7.09,5.32-4.95,11.89,2.97,12.88,7.93.99,8.54,1.51,15.85-3.96,7.92-5.94,8.91-15.85,0-14.86-8.91.99-14.86,2.97-18.82,5.94Z"/>
        <circle class="cls-10" cx="150.5" cy="176.15" r="8.91"/>
        <circle class="cls-10" cx="253.52" cy="151.39" r="8.91"/>
        <path class="cls-32" d="m134.58,229.35c10.77,0,42.98-12.19,53.55-31.41,10.47,6.43,22,9.56,35.26,9.56,15.1,0,30.06-4.12,43.99-8.58-1.83.59-3.68,1.16-5.55,1.73"/>
        <path class="cls-3" d="m350.09,132.47c-.62,0-1.17.02-1.61.06-1.54.13-2.9,1.04-3.6,2.42-.7,1.38-.63,3.02.17,4.33,1.71,2.79,5.26,6.57,9.51,10.12l1.12.95c31.99,27.28,56.41,33.01,71.26,33.01,5.47,0,10.78-.76,15.78-2.26,23.11-6.94,37.4-21.45,43.06-32.71,2.46-4.91,2.83-8.16,2.83-9.67,0-2.28-1.73-4.2-4-4.43-3.15-.32-10.8-.47-23.39-.47-6.54,0-13.99.04-21.9.08-8.99.05-18.59.09-28.17.09-17.67,0-42.96-.15-58.57-1.41-.86-.07-1.69-.1-2.48-.1h0Z"/>
        <path class="cls-1" d="m488.6,138.72c-.32-.03-57.64,54.91-137.54,2.04-16.35-10.82-6.17,2.23,4.61,10.26,52.45,45.98,101.91,41.84,130.1-1.96,3.11-7.33,9.18-8.21,2.83-10.34Z"/>
        <path class="cls-32" d="m350.09,132.47c-.62,0-1.17.02-1.61.06-1.54.13-2.9,1.04-3.6,2.42-.7,1.38-.63,3.02.17,4.33,1.71,2.79,5.26,6.57,9.51,10.12l1.12.95c31.99,27.28,56.41,33.01,71.26,33.01,5.47,0,10.78-.76,15.78-2.26,23.11-6.94,37.4-21.45,43.06-32.71,2.46-4.91,2.83-8.16,2.83-9.67,0-2.28-1.73-4.2-4-4.43-3.15-.32-10.8-.47-23.39-.47-6.54,0-13.99.04-21.9.08-8.99.05-18.59.09-28.17.09-17.67,0-42.96-.15-58.57-1.41-.86-.07-1.69-.1-2.48-.1h0Z"/>
        <g>
          <path class="cls-10" d="m113.39,464.92c-3.39-7.74-29.64-61.98-46.31-74.8-2.23-1.72-4.56-3.23-6.94-4.52-10.94-13.72-25.44-21.58-37.12-20.06-5.34.7-12.59,3.63-16.87,13.63-1.03,2.16-3.05,24.97,8.6,62.61,4.44,14.36,7.1,20.6,13.29,23.15,7.01,2.89,14.95,1.91,24.98,26.36.05.12-5.86,3.97-5.8,4.09,4.01,7.51,14.75,19.64,29.75,19.64,2.65,0,5.43-.38,8.32-1.23,11.9-3.48,23.55-7.67,28.2-14.71,7.06-10.71,3.03-27.03-.09-34.17Z"/>
          <path class="cls-24" d="m84.53,446.46c-2.31-3.91-13.46-16.15-15.67-29.76-6.4-39.32-47.23-63.75-59.07-35.88,0,0-12.44,20.72-.86,58.14,8.76,28.31,26.32,14.2,41.81,54.54,0,0,12.33,23.36,33.42,16.46,28.09-9.19,19.03-31.94.37-63.5Z"/>
          <g>
            <path class="cls-4" d="m80.12,509.96l9.74-5.95c21.81-13.31-.29-43.52-.29-43.52l-48.03,29.99s19.45,31.16,38.59,19.47Z"/>
            <path class="cls-10" d="m92.82,453.66c-.79-.65-1.99-.67-2.96-.07l-46.37,28.85c-.43.27-.78.64-1,1.07l-3.89,6.26s-1.35,1.66-.45,2.83c1.01,1.32,21.8,34.36,44.06,20.77l9.74-5.95c.56-.34,1.1-.69,1.62-1.06,5.1-3.59,13.54-8.23,12.87-21.96-.57-11.63-13.47-30.62-13.61-30.74Zm-5.04,46.94l-9.74,5.95c-12.2,7.45-25.57-7.86-30.81-14.9l41.13-25.69c3.11,5.15,8.55,15.76,6.78,24.62-.84,4.23-3.25,7.51-7.36,10.01Z"/>
          </g>
          <path class="cls-10" d="m81.59,431.73c-.31.76-1,1.24-1.77,1.51-25.39,8.9-49.71,27.83-50,28.12-5.1,5.16-15.43-9.77-15.08-10.26.58-.82,4.07-8.13,20.79-19,15.79-10.26,27.33-12.22,37.18-13.99,1.06-.19,2.14.31,2.71,1.25l5.98,10.01c.43.72.5,1.59.19,2.36Z"/>
        </g>
        <path class="cls-9" d="m172.75,238.79l-50.56-4.85c-1.28-.12-2.34.98-2.17,2.25l.7,4.87,47.19,4.53c11.69,1.08,14.05,12.32,15.26,21.22,0,0,8.68-2.44,8.72-2.77,1.32-11.04-8.06-24.19-19.13-25.25Z"/>
        <path class="cls-2" d="m430.53,369.35c-.13-21.35,16.41-89.78-27.79-168.7-107.3,33.27-205.53,63.39-205.53,63.39-15.97,3.26-65.25,17.8-65.25,17.8-12.54,15.53-30.67,69.11-30.67,69.11-1.15,42.51-9.15,85.65-33.63,130.02,0,0,34.77,40.69,147.43,43.77,0,0,28.33-43.46,59.17-89.36,27.76-3.53,65.6,10.46,80.33-1.21,45.16-35.78,37.97-58.94,37.97-58.94,0,0,.45,29.98,20.63,69.22,3.64,7.07,44.99,62.63,44.99,62.63,20.05-31.89,22.93-59.39,22.93-59.39-28.91-29.59-50.42-52.78-50.57-78.34Z"/>
        <path class="cls-2" d="m399.56,185.65l5.57,20.53c.04.93-.56,1.77-1.46,2.02l-205.14,59.16s-2.39-28.07,13.27-33.44l185.23-50.1c1.24-.35,2.48.55,2.54,1.83Z"/>
        <g class="cls-35">
          <polygon class="cls-13" points="242.33 323.64 242.33 326.88 242.33 334.06 251.12 334.06 251.12 326.88 251.12 323.97 251.12 322.45 263.15 322.45 263.15 314.24 218.69 314.24 218.69 351.43 214.25 351.43 214.25 314.24 169.79 314.24 169.79 322.45 181.82 322.45 181.82 323.97 181.82 326.88 181.82 334.06 190.61 334.06 190.61 326.88 190.61 323.64 190.61 322.45 202.8 322.45 205.46 322.45 207.23 322.45 207.23 358.31 214.25 358.31 218.69 358.31 225.71 358.31 225.71 322.45 227.48 322.45 230.14 322.45 242.33 322.45 242.33 323.64"/>
          <polygon class="cls-13" points="304.88 264.17 304.88 267.08 304.88 274.26 313.67 274.26 313.67 267.08 313.67 263.84 313.67 262.65 325.86 262.65 328.52 262.65 330.29 262.65 330.29 298.51 337.31 298.51 341.75 298.51 348.77 298.51 348.77 262.65 350.54 262.65 353.2 262.65 365.39 262.65 365.39 263.84 365.39 267.08 365.39 274.26 374.18 274.26 374.18 267.08 374.18 264.17 374.18 262.65 386.21 262.65 386.21 254.44 341.75 254.44 341.75 291.63 337.31 291.63 337.31 254.44 292.85 254.44 292.85 262.65 304.88 262.65 304.88 264.17"/>
          <polygon class="cls-13" points="365.39 323.64 365.39 326.88 365.39 334.06 374.18 334.06 374.18 326.88 374.18 323.97 374.18 322.45 386.21 322.45 386.21 314.24 341.75 314.24 341.75 351.43 337.31 351.43 337.31 314.24 292.85 314.24 292.85 322.45 304.88 322.45 304.88 323.97 304.88 326.88 304.88 334.06 313.67 334.06 313.67 326.88 313.67 323.64 313.67 322.45 325.86 322.45 328.52 322.45 330.29 322.45 330.29 358.31 337.31 358.31 341.75 358.31 348.77 358.31 348.77 322.45 350.54 322.45 353.2 322.45 365.39 322.45 365.39 323.64"/>
          <path class="cls-13" d="m401.06,302.95h31.9c-.09-1.46-.2-2.94-.31-4.43h-31.58v4.43Z"/>
          <path class="cls-13" d="m401.06,292h14.85v-13.3h7.59v13.3h8.53c-.16-1.47-.32-2.94-.51-4.43h-3.58v-8.87h2.3c-.24-1.47-.5-2.95-.77-4.43h-1.53v-7.63c-.29-1.32-.59-2.64-.9-3.98h-11.12v-8.21h9.02c-.4-1.47-.82-2.95-1.26-4.43h-12.19v17.08h12.02v7.18h-12.02v13.3h-10.42v4.43Z"/>
          <path class="cls-13" d="m401.06,243.15h20.46c-.49-1.47-.99-2.95-1.51-4.43h-18.95v4.43Z"/>
          <path class="cls-13" d="m401.06,232.2h14.85v-4.24c-1.37-3.37-2.85-6.77-4.43-10.19v10h-10.42v4.43Z"/>
          <path class="cls-13" d="m448.92,413.99v8.55h6.64c-2.35-2.88-4.57-5.73-6.64-8.55Z"/>
          <path class="cls-13" d="m440.58,422.55h.59v-15.38h-13.22v-8.87h10.94c-.79-1.48-1.54-2.96-2.22-4.43h-8.71v-11.61h-12.03v-8.21h14.89c-.16-1.48-.24-2.96-.26-4.43h-19.06v17.08h12.02v7.18h-12.02v13.3h-10.42v4.43h14.85v-13.3h7.59v13.3h13.22v6.52h-35.24c.53,1.45,1.1,2.93,1.69,4.43h37.39Z"/>
          <path class="cls-13" d="m401.06,358.31v4.43h29.77c.1-1.38.23-2.86.37-4.43h-30.13Z"/>
          <path class="cls-13" d="m411.48,338.5v8.87h-10.42v4.43h14.85v-13.3h7.59v13.3h8.27c.13-1.42.26-2.9.38-4.43h-4.22v-8.87h4.88c.09-1.44.17-2.92.25-4.43h-5.13v-11.61h-12.03v-8.21h17.49c-.03-1.46-.06-2.94-.12-4.43h-21.81v17.08h12.02v7.18h-12.02v4.43Z"/>
          <path class="cls-13" d="m460.37,489.2h-17.67c1.25,1.57,2.45,3.05,3.6,4.43h14.07v10.61c1.6-2.13,3.07-4.25,4.43-6.35v-4.25h2.64c.88-1.5,1.69-2.97,2.46-4.43h-9.54Z"/>
          <polygon class="cls-13" points="453.35 501.85 453.35 501.85 453.35 501.85 453.35 501.85"/>
          <path class="cls-13" d="m434.11,477.91c1.11,1.52,2.2,3.01,3.28,4.43h3.78v-15.38h-13.22v-8.87h13.22v-11.61h7.76v35.87h24.3c1.18-2.68,2.19-5.27,3.04-7.72v-28.14h.82c-1.43-1.49-2.84-2.96-4.23-4.43h-1.02v35.86h-18.47v-35.86h-16.62v11.61h-8.79v-11.61h-12.03v-8.21h44.46v37.19h4.43v-37.19h.47c-1.34-1.49-2.65-2.96-3.93-4.43h-49.87v11.7c.56,1.11,1.12,2.22,1.71,3.35.36.68.72,1.36,1.08,2.03h9.23v7.18h-5.23c.87,1.5,1.75,2.98,2.63,4.43h2.6v4.2c2,3.16,4.01,6.2,6,9.1h7.22v6.52h-2.62Z"/>
          <polygon class="cls-13" points="288.42 214.46 288.42 217.34 288.42 218.9 288.42 227.76 278 227.76 278 232.2 288.42 232.2 292.85 232.2 292.85 227.76 292.85 218.9 300.44 218.9 300.44 227.76 300.44 231.83 300.44 232.2 313.67 232.2 313.67 238.71 278 238.71 278 243.15 313.67 243.15 317.52 243.15 318.1 243.15 318.1 232.2 318.1 229.31 318.1 227.76 304.88 227.76 304.88 218.9 313.67 218.9 317.52 218.9 318.1 218.9 318.1 207.28 325.86 207.28 325.86 238.71 325.86 239.7 325.86 243.15 337.31 243.15 341.75 243.15 353.2 243.15 353.2 239.7 353.2 238.71 353.2 207.28 360.96 207.28 360.96 218.9 361.55 218.9 365.39 218.9 374.18 218.9 374.18 227.76 360.96 227.76 360.96 229.31 360.96 232.2 360.96 243.15 361.55 243.15 365.39 243.15 401.06 243.15 401.06 238.71 365.39 238.71 365.39 232.2 378.62 232.2 378.62 231.83 378.62 227.76 378.62 218.9 386.21 218.9 386.21 227.76 386.21 232.2 390.64 232.2 401.06 232.2 401.06 227.76 390.64 227.76 390.64 218.9 390.64 217.34 390.64 214.46 378.62 214.46 378.62 207.28 386.21 207.28 389.04 207.28 390.64 207.28 390.64 194.64 390.64 192.43 390.64 190.2 373.42 190.2 357.03 194.64 386.21 194.64 386.21 202.85 374.18 202.85 374.18 204.37 374.18 207.28 374.18 214.46 365.39 214.46 365.39 207.28 365.39 204.04 365.39 202.85 353.2 202.85 350.54 202.85 348.77 202.85 348.77 238.71 341.75 238.71 337.31 238.71 330.29 238.71 330.29 202.85 328.52 202.85 326.68 202.85 313.67 206.37 313.67 207.28 313.67 214.46 304.88 214.46 304.88 208.74 300.44 209.94 300.44 214.46 288.42 214.46"/>
          <path class="cls-13" d="m288.42,274.26v13.3h-10.42v4.43h14.85v-13.3h7.59v13.3h13.22v6.52h-35.67v4.43h40.1v-15.38h-13.22v-8.87h13.22v-11.61h7.76v35.87h27.34v-35.87h7.76v11.61h13.22v8.87h-13.22v15.38h40.1v-4.43h-35.67v-6.52h13.22v-13.3h7.59v13.3h14.85v-4.43h-10.42v-13.3h-12.02v-7.18h12.02l-1.49-11-1-1.64-3.49-1.94-42.91-2.49h-53.33v17.08h12.02v7.18h-12.02Zm4.43-11.61v-8.21h44.46v37.19h4.43v-37.19h44.46v8.21h-12.02v11.61h-8.79v-11.61h-16.62v35.86h-18.47v-35.86h-16.62v11.61h-8.79v-11.61h-12.02Z"/>
          <polygon class="cls-13" points="341.75 198.77 337.31 199.97 337.31 231.83 341.75 231.83 341.75 198.77"/>
          <path class="cls-13" d="m337.31,429.4h-48.89v7.53c1.48.46,2.96,1,4.43,1.6v-4.7h44.46v27.89c1.61.07,3.1-.2,4.43-.89v-26.99h20.6c.95-1.48,1.87-2.96,2.78-4.43h-27.82Z"/>
          <path class="cls-13" d="m304.88,443.57v-1.52h-4.62c1.55.83,3.09,1.7,4.62,2.6v-1.08Z"/>
          <path class="cls-13" d="m350.54,442.05h-1.77v11.15c1.51-1.95,2.99-3.92,4.43-5.91v-.8h.58c1.06-1.47,2.1-2.95,3.12-4.43h-6.37Z"/>
          <path class="cls-13" d="m401.06,407.16h-3.25c.44,1.44.9,2.91,1.4,4.43h1.85v-4.43Z"/>
          <path class="cls-13" d="m365.39,418.11v-6.52h9.94c1.15-2.15,2.24-4.25,3.28-6.28v-7.02h3.49c.75-1.54,1.45-3.02,2.11-4.43h-5.6v-7.18h8.87c1.4-3.17,2.46-5.69,3.15-7.41v-9.67h-102.22v17.08h12.02v7.18h-12.02v13.3h-10.42v4.43h14.85v-13.3h7.59v13.3h13.22v6.52h-35.67v4.43h40.1v-15.38h-13.22v-8.87h13.22v-11.61h7.76v35.87h27.34v-35.87h7.76v11.61h13.22v8.87h-13.22v15.38h8.27c.87-1.49,1.71-2.97,2.53-4.43h-6.37Zm0-24.25v-11.61h-16.62v35.86h-18.47v-35.86h-16.62v11.61h-8.79v-11.61h-12.02v-8.21h44.46v37.19h4.43v-37.19h44.46v8.21h-12.02v11.61h-8.79Z"/>
          <path class="cls-13" d="m386.21,351.8h14.85v-4.43h-10.42v-13.3h-12.02v-7.18h12.02v-17.08h-102.22v17.08h12.02v7.18h-12.02v13.3h-10.42v4.43h14.85v-13.3h7.59v13.3h13.22v6.52h-35.67v4.43h40.1v-15.38h-13.22v-8.87h13.22v-11.61h7.76v35.87h27.34v-35.87h7.76v11.61h13.22v8.87h-13.22v15.38h40.1v-4.43h-35.67v-6.52h13.22v-13.3h7.59v13.3Zm-33.01-29.35h-4.43v35.87h-18.47v-35.87h-16.62v11.61h-8.79v-11.61h-12.02v-8.21h44.46v37.19h4.43v-37.19h44.46v8.21h-12.02v11.61h-8.79v-11.61h-12.19Z"/>
          <path class="cls-13" d="m330.29,442.05h-16.62v8.06c1.51.97,2.98,1.92,4.43,2.84v-6.47h7.76v11.14c1.53.84,3.01,1.59,4.43,2.21v-17.78Z"/>
          <path class="cls-13" d="m177.38,274.26h-12.02v13.3h-10.42v4.43h14.85v-13.3h7.59v13.3h13.22v6.52h-35.67v4.43h40.1v-15.38h-13.22v-8.87h13.22v-11.61h7.76v35.87h27.34v-35.87h7.76v11.61h13.22v8.87h-13.22v15.38h40.1v-4.43h-35.67v-6.52h13.22v-13.3h7.59v13.3h14.85v-4.43h-10.42v-13.3h-12.02v-7.18h12.02v-17.08h-67.74c-.35,1.49-.62,2.98-.83,4.43h15.25v37.19h4.43v-37.19h44.46v8.21h-12.02v11.61h-8.79v-11.61h-16.62v35.86h-18.47v-35.86h-14.61c-.7.2-1.38.39-2.01.57v11.05h-8.79v-8.61c-1.41.34-2.93.82-4.53,1.43h.1v7.18Z"/>
          <polygon class="cls-13" points="267.58 218.83 263.15 220.03 263.15 227.76 263.15 232.2 267.58 232.2 278 232.2 278 227.76 267.58 227.76 267.58 218.9 267.58 218.83"/>
          <polygon class="cls-13" points="242.33 243.15 278 243.15 278 238.71 242.33 238.71 242.33 232.2 255.56 232.2 255.56 231.83 255.56 227.76 255.56 222.09 251.12 223.29 251.12 227.76 237.9 227.76 237.9 229.31 237.9 232.2 237.9 243.15 238.48 243.15 242.33 243.15"/>
          <path class="cls-13" d="m218.69,243.15h11.45v-14.19l-4.43,1.2v8.55h-18.47v-2.24c-1.82,1.5-3.28,3.39-4.43,5.5v1.17h15.89Z"/>
          <path class="cls-13" d="m263.15,411.6h14.85v-4.43h-10.42v-13.3h-12.02v-7.18h12.02v-17.08h-102.22v17.08h12.02v7.18h-12.02v13.3h-10.42v4.43h14.85v-13.3h7.59v13.3h13.22v6.52h-35.67v4.43h40.1v-15.38h-13.22v-8.87h13.22v-11.61h7.76v35.87h27.34v-35.87h7.76v11.61h13.22v8.87h-13.22v15.38h40.1v-4.43h-35.67v-6.52h13.22v-13.3h7.59v13.3Zm-12.02-29.35v11.61h-8.79v-11.61h-16.62v35.86h-18.47v-35.86h-16.62v11.61h-8.79v-11.61h-12.03v-8.21h44.46v37.19h4.43v-37.19h44.46v8.21h-12.02Z"/>
          <path class="cls-13" d="m263.15,351.8h14.85v-4.43h-10.42v-13.3h-12.02v-7.18h12.02v-17.08h-102.22v17.08h12.02v7.18h-12.02v13.3h-10.42v4.43h14.85v-13.3h7.59v13.3h13.22v6.52h-35.67v4.43h40.1v-15.38h-13.22v-8.87h13.22v-11.61h7.76v35.87h27.34v-35.87h7.76v11.61h13.22v8.87h-13.22v15.38h40.1v-4.43h-35.67v-6.52h13.22v-13.3h7.59v13.3Zm-33.01-29.35h-4.43v35.87h-18.47v-35.87h-16.62v11.61h-8.79v-11.61h-12.03v-8.21h44.46v37.19h4.43v-37.19h44.46v8.21h-12.02v11.61h-8.79v-11.61h-12.19Z"/>
          <path class="cls-13" d="m169.79,517.9h7.59v4.19c1.46.17,2.94.34,4.43.49v-4.68h13.22v-11.61h7.76v17.95c1.46.08,2.94.15,4.43.22v-22.6h-16.62v11.61h-8.79v-11.61h-12.03v-8.21h44.46v31.07c.28,0,.56.02.84.03,0,0,1.28-1.97,3.6-5.5v-25.6h16.82c.95-1.44,1.93-2.92,2.93-4.43h-73.07v17.08h12.02v7.18h-12.02v7.01c1.46.22,2.94.44,4.43.64v-3.22Z"/>
          <path class="cls-13" d="m225.71,501.85v6.68c1.36-2.07,2.83-4.3,4.39-6.68h-4.39Z"/>
          <path class="cls-13" d="m242.33,477.91v-6.52h7.89c1.74-2.63,3.52-5.31,5.34-8.03v-5.27h3.51c.98-1.47,1.96-2.95,2.96-4.43h-6.47v-7.18h11.26c.25-.38.51-.76.76-1.14v-15.94h-102.22v17.08h12.02v7.18h-12.02v13.3h-10.42v4.43h14.85v-13.3h7.59v13.3h13.22v6.52h-35.67v4.43h40.1v-15.38h-13.22v-8.87h13.22v-11.61h7.76v35.87h27.34v-35.87h7.76v11.61h13.22v8.87h-13.22v15.38h5.07c.96-1.45,1.94-2.93,2.93-4.43h-3.57Zm-12.19-35.86h-4.43v35.86h-18.47v-35.86h-16.62v11.61h-8.79v-11.61h-12.03v-8.21h44.46v37.19h4.43v-37.19h44.46v8.21h-12.02v11.61h-8.79v-11.61h-12.19Z"/>
          <path class="cls-13" d="m154.94,298.51h-23.9c-.96,1.39-1.95,2.88-2.95,4.43h26.85v-4.43Z"/>
          <path class="cls-13" d="m144.52,286.11c-1.66,1.16-3.15,2.23-4.43,3.16v2.73h14.85v-4.43h-10.42v-1.46Z"/>
          <path class="cls-13" d="m95.62,404.27c-.46,2.32-.94,4.64-1.46,6.96h1.46v-6.96Z"/>
          <path class="cls-13" d="m140.08,411.6h14.85v-4.43h-10.42v-13.3h-12.02v-7.18h12.02v-17.08h-44.2c-.12,1.48-.24,2.96-.38,4.43h40.14v8.21h-12.02v11.61h-8.79v-11.61h-16.62v35.86h-10.12c-.37,1.48-.76,2.95-1.16,4.43h15.72v-35.87h7.76v11.61h13.22v8.87h-13.22v15.38h40.1v-4.43h-35.67v-6.52h13.22v-13.3h7.59v13.3Z"/>
          <path class="cls-13" d="m107.08,359.3v-19.54c-1.89,3.59-3.42,6.56-4.43,8.54v10.02h-1.62c-.07,1.48-.14,2.95-.23,4.43h6.29v-3.45Z"/>
          <path class="cls-13" d="m140.08,351.8h14.85v-4.43h-10.42v-13.3h-12.02v-7.18h12.02v-17.08h-20.7c-.88,1.45-1.76,2.94-2.64,4.43h18.9v8.21h-12.02v11.61h-8.79v-11.61h-2.79c-.84,1.49-1.66,2.97-2.47,4.43h.82v11.61h13.22v8.87h-13.22v15.38h40.1v-4.43h-35.67v-6.52h13.22v-13.3h7.59v13.3Z"/>
          <path class="cls-13" d="m104.42,501.85h-1.77v1.43c2.3,1,4.73,2.01,7.29,3h4.9v1.83c1.44.52,2.92,1.03,4.43,1.54v-7.8h-14.85Z"/>
          <path class="cls-13" d="m91.19,489.2h-13.88c1.91,1.37,4.13,2.86,6.69,4.43h7.19v4.12c1.4.75,2.89,1.51,4.43,2.27v-6.39h44.46v8.21h-12.02v10.55c5.1,1.48,10.58,2.9,16.46,4.21v-3.14h-12.02v-7.18h12.02v-17.08h-53.33Z"/>
          <path class="cls-13" d="m71.98,482.35v-9.52c-1.38,2.71-2.82,5.43-4.32,8.14,0,0,.42.49,1.32,1.37h3Z"/>
          <path class="cls-13" d="m140.08,471.4h14.85v-4.43h-10.42v-13.3h-12.02v-7.18h12.02v-17.08h-55.12c-.44,1.48-.9,2.95-1.37,4.43h3.16v37.19h4.43v-37.19h44.46v8.21h-12.02v11.61h-8.79v-11.61h-16.62v35.86h-18.47v-32.89c-1.38,3.72-2.85,7.44-4.43,11.17v26.15h27.34v-35.87h7.76v11.61h13.22v8.87h-13.22v15.38h40.1v-4.43h-35.67v-6.52h13.22v-13.3h7.59v13.3Z"/>
        </g>
        <path class="cls-9" d="m478.08,443.59c-1.35,6.87-12.56,28.53-21.02,45.19-17.01-23.04-20.85-28.86-32.3-48.84s-18.54-46.69-20.96-57.42c-1.53-6.75-1.84-7.79-2.94-12.37-1.29-5.38-4.96-7.45-8.53-7.45s-7.28,1.33-9.19,8.13c-2.57,9.17-4.53,31.55-34.77,55.5-1.49,1.18-4.93,2.58-12.88,2.58-6.57,0-14.35-.91-22.59-1.88-9.35-1.1-19.03-2.24-28.46-2.24-4.17,0-7.91.22-11.46.67l-4.51.57-2.53,3.77c-24.67,36.72-47.98,72.25-56.16,84.75-79.8-3.16-117.19-26.02-129.63-35.77,19.68-38.12,29.6-78.43,31.08-126.04l-9.95-1.8c-1.15,42.51-9.15,85.65-33.63,130.02,0,0,34.77,40.69,147.43,43.77,0,0,28.33-43.46,59.17-89.36,27.76-3.53,64.82,9.4,80.33-1.21,34.52-23.62,36.59-48.66,37.06-57.42,1.07,10.24,6.39,38.22,21.54,67.7,3.64,7.07,44.99,62.63,44.99,62.63,17.29-27.5,25.05-49.95,25.97-56.1-3.41.89-2.52-7.82-6.07-7.39Z"/>
        <path class="cls-5" d="m430.53,369.35c-.13-21.35,16.41-89.78-27.79-168.7-107.3,33.27-205.53,63.39-205.53,63.39-15.97,3.26-65.25,17.8-65.25,17.8-12.54,15.53-30.67,69.11-30.67,69.11-1.15,42.51-9.15,85.65-33.63,130.02,0,0,34.77,40.69,147.43,43.77,0,0,28.33-43.46,59.17-89.36,27.76-3.53,64.21,42.85,74.82,27.34,25.1-36.67,42.57-85.97,42.57-85.97,0,0,1.37,28.46,21.54,67.7,3.64,7.07,17.95,32,17.95,32,20.05-31.89,49.97-28.76,49.97-28.76-28.91-29.59-50.42-52.78-50.57-78.34Z"/>
        <path class="cls-9" d="m209.13,241.55l192.16-49.32-.42-1.25c-.06-1.28-1.86-5.14-3.1-4.79l-192.42,49.39c-15.66,5.36-14.6,29.6-14.6,29.6l8.89-1.71c.69-3.3-1.25-18.23,9.48-21.92Z"/>
        <path class="cls-22" d="m197.22,264.04s-21.79,6.25-46.64,12c-16.33,3.78-26.34,4.86-32.5,27.65"/>
        <path class="cls-32" d="m407.99,210.88l-8.43-25.23c-.06-1.28-1.3-2.18-2.54-1.83l-192.42,49.39c-18.28,4.29-14.28,27.16-14.28,27.16,0,0,1.43-20.02-17.8-22.55l-50.55-4.85c-1.28-.12-2.34.98-2.17,2.25l2.54,18.36"/>
        <g>
          <path class="cls-27" d="m160.66,263.99c5.38,6.1,8.36,9.65,19.57,15.54"/>
          <circle class="cls-33" cx="157.63" cy="261.05" r="5.76"/>
          <circle class="cls-33" cx="182.83" cy="281.16" r="5.76"/>
        </g>
        <g>
          <path class="cls-27" d="m140.76,277.67c5.38,6.1,8.36,9.65,19.57,15.54"/>
          <circle class="cls-33" cx="137.73" cy="274.74" r="5.76"/>
          <circle class="cls-33" cx="162.93" cy="294.85" r="5.76"/>
        </g>
        <ellipse class="cls-26" cx="291.56" cy="76.03" rx="13.35" ry="65.71" transform="translate(160.52 347.35) rotate(-78.84)"/>
        <path class="cls-6" d="m345.89,102.72c-3.67,18.59-29.37,16.87-60.28,10.77-30.92-6.1-55.34-14.27-51.67-32.87,3.67-18.59,31.71-28.72,62.62-22.61s53,26.12,49.33,44.71Z"/>
        <path class="cls-19" d="m319.01,88.64c-2.75,13.93-17.33,22.78-32.56,19.77-15.23-3.01-25.36-16.73-22.61-30.66,2.75-13.93,21.53-22,32.56-19.77s25.36,16.73,22.61,30.66Z"/>
        <path class="cls-29" d="m345.89,102.72c-3.67,18.59-29.37,16.87-60.28,10.77-30.92-6.1-55.34-14.27-51.67-32.87,3.67-18.59,31.71-28.72,62.62-22.61s53,26.12,49.33,44.71Z"/>
        <path class="cls-19" d="m306.38,60.85c-.22,1.12-4.67,1.19-9.94.15-5.27-1.04-9.36-2.79-9.14-3.91.22-1.12,1.79-9.06,11.33-7.18,9.54,1.88,7.97,9.82,7.75,10.94Z"/>
        <path class="cls-2" d="m227.04,66.57c-6.01,30.45,3.87,41.5,7.93,44.64,13.6,5.84,29.78,10.85,47.41,14.33,17.63,3.48,34.5,5,49.3,4.76,4.94-1.36,18.28-7.83,24.29-38.28-36.12,3.29-96.77-8.68-128.93-25.45Z"/>
        <g class="cls-35">
          <path class="cls-13" d="m353.2,93.07c-1.44.05-2.92.09-4.43.09v24.91c1.54-2.05,3.04-4.45,4.43-7.25v-17.76Z"/>
          <path class="cls-13" d="m290.02,87.68h7.09c-2.9-.54-5.8-1.12-8.7-1.72v1.72h1.6Z"/>
          <path class="cls-13" d="m337.31,112.23h4.43v-19.19c-1.45-.05-2.93-.12-4.43-.21v19.39Z"/>
          <path class="cls-13" d="m347.97,119.11h-17.67v-26.78c-1.46-.13-2.94-.27-4.43-.42v31.64h17.93c1.39-1.24,2.79-2.71,4.17-4.43Z"/>
          <path class="cls-13" d="m317.52,123.55h.59v-15.38h-13.22v-8.87h13.22v-8.28c-1.47-.19-2.95-.39-4.43-.6v4.45h-8.79v-5.81c-1.47-.25-2.95-.5-4.43-.77v6.57h-12.02v13.3h-10.42v4.43h14.85v-13.3h7.59v13.3h13.22v6.52h-35.67v4.43h39.52Z"/>
          <path class="cls-13" d="m220.04,75.04h27.54c-4.29-1.43-8.38-2.92-12.22-4.43h-14.97c-.17,1.52-.29,3.01-.35,4.43Z"/>
          <path class="cls-13" d="m267.58,108.16v-13.3h-12.02v-7.18h12.02v-6.68c-1.49-.4-2.97-.8-4.43-1.21v3.46h-12.02v11.61h-8.79v-11.61h-16.62v17.25c1.44,2.5,2.99,4.55,4.43,6.18v-19h7.76v11.61h13.22v8.87h-13.22v4.27c1.45.59,2.93,1.18,4.43,1.75v-1.59h13.22v-13.3h7.59v13.3h14.85v-4.43h-10.42Z"/>
          <path class="cls-13" d="m278,119.11h-21.31c5.28,1.62,10.78,3.1,16.47,4.43h4.84v-4.43Z"/>
        </g>
        <path class="cls-32" d="m378,412.38c12.3-12.49,13.65-35.63,13.65-35.63,0,0,.37,22.27,18.99,62.28,7.88,16.93,47.54,68.05,47.54,68.05,21.87-33.27,25.97-56.1,25.97-56.1-33.66-30.14-53.45-56.07-53.61-81.63-.13-21.35,12.46-82.51-22.54-158.47"/>
        <path class="cls-32" d="m101.3,350.95c-1.15,42.51-9.15,85.65-33.63,130.02,0,0,28.74,43.79,137.69,43.77"/>
        <path class="cls-11" d="m363.3,96.75s-.45-1.58-.44-1.62c.76-3.35-3.34-7.09-6.72-7-37.29.99-93.51-11.57-127.77-28.55-3.1-1.54-7.99-3.07-8.37.37,0,.04-1.94,3.43-1.95,3.46-.24,2.2,4.21,4.49,6.18,5.51,34.77,17.99,94.63,31.36,132.72,29.66,2.16-.1,5.87.32,6.36-1.82Z"/>
        <path class="cls-10" d="m226.13,59.94c.74,0,1.5.17,2.24.53,33,16.35,86.35,28.6,123.56,28.6,1.43,0,2.84-.02,4.21-.05.04,0,.09,0,.13,0,3.31,0,5.87,3.26,5.12,6.57,0,.03-.02.07-.02.1-.49,2.15-2.27,3.67-4.43,3.77-.9.04-1.82.06-2.74.09-6.55,24.01-18.02,29.5-22.53,30.74-.99.02-2,.02-3.01.02-14.06,0-29.84-1.54-46.29-4.78-17.63-3.48-33.81-8.48-47.41-14.33-3.86-2.99-12.98-13.15-8.68-40.36-.69-.34-1.39-.69-2.06-1.03-1.97-1.02-3.12-3.2-2.88-5.4,0-.04,0-.07.01-.11.29-2.62,2.41-4.36,4.77-4.36m0-7c-6.01,0-11.05,4.55-11.73,10.58v.12c-.47,4.15,1.22,8.23,4.33,10.86-3.05,27.29,7.2,38.56,11.95,42.24.47.36.98.66,1.52.9,14.45,6.21,31.33,11.31,48.82,14.76,16.3,3.22,32.77,4.92,47.65,4.92,1.05,0,2.09,0,3.12-.02.59,0,1.18-.09,1.75-.25,5.41-1.49,18.27-7.45,26-30.91,4.24-1.06,7.66-4.46,8.66-8.88l.03-.14c.83-3.65-.06-7.47-2.44-10.45-2.35-2.94-5.82-4.63-9.51-4.63-.11,0-.21,0-.32,0-1.31.03-2.66.05-4.03.05-36.6,0-88.38-11.98-120.45-27.88-1.69-.84-3.49-1.26-5.34-1.26h0Z"/>
        <path class="cls-15" d="m376.3,413.84c-29.43-28.49-91.24-21.47-111.25,29.4-11.5,29.24-11.53,47.28-11.53,47.28,0,0,66.83,7.92,99.15-26.74,31.43-33.7,23.64-49.94,23.64-49.94Z"/>
        <path class="cls-32" d="m266.75,441.78c22.05-50.01,81.83-57.89,111.25-29.4"/>
        <g>
          <path class="cls-8" d="m280.86,96.21c1.67.34,3.22.99,4.63,1.92.68.45,1.32.97,1.9,1.55.58.57,1.1,1.2,1.56,1.87.46.67.85,1.39,1.16,2.13.32.75.55,1.53.71,2.33.32,1.65.27,3.32-.16,4.96s-1.18,3.12-2.26,4.41c-.52.62-1.1,1.19-1.74,1.69-.63.5-1.32.94-2.05,1.3-.72.36-1.49.66-2.27.88-.79.22-1.6.37-2.41.43-1.68.14-3.36-.05-4.98-.56-1.6-.5-3.05-1.27-4.33-2.3-.61-.49-1.17-1.03-1.67-1.62-.49-.58-.94-1.2-1.31-1.85-.37-.65-.69-1.33-.93-2.03-.25-.7-.43-1.42-.53-2.15-.22-1.5-.14-3.01.24-4.48.38-1.47,1.04-2.83,1.96-4.03.44-.58.95-1.13,1.51-1.62.55-.49,1.16-.94,1.8-1.32.64-.39,1.33-.72,2.04-.99.72-.27,1.48-.48,2.24-.61,1.61-.28,3.26-.26,4.9.08m.19-.73c-6.99-1.42-13.69,2.67-15.33,9.04-1.64,6.38,2.24,13.19,9.04,15.33,7.23,2.28,14.92-1.55,16.76-8.67,1.84-7.13-3.05-14.2-10.48-15.7h0Z"/>
          <path class="cls-8" d="m267.66,105.03c-.99,3.84.41,7.82,3.35,10.42l-1.48-14.17c-.86,1.08-1.51,2.34-1.87,3.75Zm17.85,4.04c.33-1.3.06-2.32-.2-3.12-.35-1-.7-1.85-.48-2.71.25-.96,1.27-1.67,2.39-1.42.05.01.1.03.15.04-1.59-2.15-3.99-3.75-6.85-4.35-3.73-.79-7.37.3-9.86,2.56.23.06.45.12.64.16,1.06.25,2.75.5,2.75.5.56.1.43.9-.15.83,0,0-.57-.07-1.2-.18l.97,11.77,4.02-6-.55-4.72c-.56-.17-1.08-.36-1.08-.36-.56-.16-.28-.97.28-.81,0,0,1.72.53,2.77.78,1.13.26,2.94.54,2.94.54.6.11.46.94-.15.86,0,0-.61-.08-1.28-.2l1.13,12.12,2.04-3.08c.91-1.35,1.48-2.34,1.72-3.23Zm-7.65-.46l-5.43,7.91c.86.55,1.81.99,2.85,1.31,1.24.38,2.5.54,3.73.51-.02-.05-.03-.11-.04-.17l-1.1-9.56Zm11.16-3.49c-.04.35-.1.72-.2,1.11-.28,1.07-.81,2.23-1.86,3.57l-5.85,8.29c3.83-.83,7.03-3.58,8.04-7.51.48-1.85.4-3.72-.12-5.45Z"/>
        </g>
        <g>
          <path class="cls-2" d="m115.46,280.36c-7.94-2.88-15.88-5.76-23.77-8.72-5.05,4.55-32.99,41.89-21.42,97.44-.3,8.7,22.95,61.05,37.35,70.66-13.07-59.22,14.63-135.91,32.9-150.2-8.32-3.12-16.7-6.15-25.07-9.19"/>
          <g>
            <path class="cls-21" d="m129.21,290.91c6.36-2.85,8.77-7.35,16.06-1.61s23.02,98.69-35.63,151.73c0,0-21.57-50.73-17.46-81.82,4.11-31.09,19.99-60.67,37.03-68.3Z"/>
            <g>
              <path class="cls-15" d="m133.36,287.37c29.25-.81,40.36,21.67,35.7,34.17-2.5,6.7-4.61,13.29-15.99,18.18-.79.34-11.63.56-12.6.6-6.23.26-15.22-3.68-21.3-6.18-8.29-3.41-3.71-16.64-1.23-24.59,5.21-16.72,10.58-22.05,15.41-22.18Z"/>
              <path class="cls-7" d="m163.33,303.93c.52,1.52,1.84,14.74-16.75,20.39-13.07,3.97-23.44-.34-29.52-2.84-1.71-.7-2.81-.43-3.67-1.82-.77,6.13-.09,12.3,5.26,14.5,6.08,2.5,9.51,9.49,26.91,4.88.94-.25,1.89-.13,2.74-.26,9.39-1.48,17.74-10.52,20.23-17.22,1.54-4.14-1.46-17.11-3.46-22.23-.17,1.12-2.08,3.58-1.74,4.59Z"/>
              <path class="cls-32" d="m133.36,287.37c29.25-.81,40.36,21.67,35.7,34.17-2.5,6.7-10.2,14.08-17.19,16.2-9.29,2.82-23.86,3.59-32.69-3.6-6.95-5.66-3.05-15.75-.91-23.31,4.5-15.89,10.26-23.33,15.09-23.46Z"/>
            </g>
            <g class="cls-36">
              <path class="cls-16" d="m93.25,311.63h-21.76c-.38,1.44-.74,2.92-1.08,4.43h22.84v37.19h4.43v-37.19h25.68c.68-1.53,1.36-3,2.05-4.43h-32.16Z"/>
              <path class="cls-16" d="m74.04,303.27c-.17.5-.34,1-.51,1.51h.51v-1.51Z"/>
              <path class="cls-16" d="m121.33,300.34v-6.52h13.22v-6.49c-1.48-.55-2.95-1.1-4.43-1.64v3.69h-13.22v15.38h12.06c.88-1.57,1.75-3.05,2.63-4.43h-10.25Z"/>
              <path class="cls-16" d="m97.68,304.77h11.45v-26.71c-1.48-.54-2.96-1.07-4.43-1.61v23.89h-18.47v-21.86c-1.37,2.02-2.88,4.45-4.43,7.26v19.04h15.89Z"/>
              <path class="cls-16" d="m93.25,293.46h4.43v-19.6c-1.48-.55-2.96-1.09-4.43-1.64v21.24Z"/>
              <path class="cls-16" d="m103.08,435.66h3.73c-.28-1.47-.53-2.95-.76-4.43h-6.62c1.24,1.65,2.46,3.14,3.65,4.43Z"/>
              <path class="cls-16" d="m81.79,384.07h-7.21c.55,1.42,1.15,2.9,1.78,4.43h5.43v12.17c1.41,2.96,2.9,5.95,4.43,8.9v-25.5h-4.43Z"/>
              <path class="cls-16" d="m93.25,371.43h-22.71c.23,1.22.62,2.71,1.15,4.43h21.56v37.19h4.43v-37.19h8.87c.22-1.48.45-2.96.69-4.43h-13.99Z"/>
              <path class="cls-16" d="m104.7,393.13c.2-3.03.47-6.05.8-9.05h-.8v9.05Z"/>
              <path class="cls-16" d="m93.25,419.94h-1.27c.91,1.53,1.81,3.01,2.72,4.43h10.46c-.18-1.71-.34-3.43-.46-5.15v.72h-11.45Z"/>
              <path class="cls-16" d="m68.73,360.14c.2,1.46.43,2.94.69,4.43h4.62v-15.38h-6.37c.08,1.46.18,2.94.31,4.43h1.62v6.52h-.87Z"/>
              <path class="cls-16" d="m69.6,340.32h4.43v-11.61h7.76v35.87h26.67c.22-1.11.44-2.22.67-3.33v-32.54h7.76v4c.99-2.91,2.01-5.72,3.06-8.43h-15.25v35.86h-18.47v-35.86h-16.62v11.61h-1.92c-.08,1.46-.13,2.94-.16,4.43h2.08Z"/>
            </g>
            <path class="cls-11" d="m142.82,289.85c-2.53-.92-26.27-9.08-27.35-9.49-47.97,31.88-41.19,102.92-31.82,128.83,2.49,1.66,20.94,22.97,22.17,23.82-12.75-72.63,26.17-132.33,37-143.16Z"/>
            <path class="cls-20" d="m114.33,279.55c-47.97,31.88-41.19,102.92-31.82,128.83"/>
          </g>
          <path class="cls-32" d="m109.64,439.03c-10.01-44.53.72-116.9,35.63-151.73,0,0-11.69-4.98-39.18-13.72"/>
        </g>
        <path class="cls-32" d="m107.63,439.75c-9.89-4.43-31.62-37.1-38.17-73.85-2.47-13.85-11.2-46.89,15.04-87.53,8.25-12.78,29.09-24.71,35.55-26.55"/>
        <g>
          <ellipse class="cls-23" cx="110.58" cy="445.8" rx="3.55" ry="8.35" transform="translate(-83.05 29.3) rotate(-11)"/>
          <g>
            <circle class="cls-11" cx="113.44" cy="460.54" r="15.01"/>
            <path class="cls-10" d="m115.44,467.81h.14c.78,0,1.41.63,1.41,1.41v5.28h-2.97v-5.28c0-.78.63-1.41,1.41-1.41Z" transform="translate(-87.8 30.7) rotate(-11)"/>
            <path class="cls-10" d="m117.84,463.28c-1.2-.62-2.78.07-3.57,1.53-1.28-1.06-3-1.1-3.88-.08-.9,1.04-.58,2.77.7,3.88,1.28,1.11,3.13,1.61,4.03.57,0,0,0,0,0,0,0,0,0,0,0,0,1.22.63,2.75-.53,3.52-2.04.77-1.51.41-3.23-.81-3.86Z"/>
            <circle class="cls-30" cx="113.44" cy="460.54" r="15.01"/>
            <rect class="cls-18" x="96.07" y="453.73" width="33.44" height="6.87" rx="3.27" ry="3.27" transform="translate(-85.18 29.93) rotate(-11)"/>
            <path class="cls-31" d="m128.06,457.22c.9-.78,1.38-1.99,1.13-3.24-.35-1.82-2.09-3.02-3.91-2.73-3.3-4.29-8.79-6.6-14.71-5.45-5.93,1.15-10.15,5.35-11.6,10.56-1.8.41-2.96,2.17-2.6,3.99h0c.24,1.25,1.14,2.19,2.27,2.58.03.16.04.31.07.46,1.58,8.14,8.23,13.69,17.6,11.87,9.37-1.82,13.45-9.46,11.87-17.6-.03-.16-.08-.3-.11-.46Z"/>
          </g>
        </g>
        <g>
          <ellipse class="cls-23" cx="283.85" cy="444.66" rx="3.55" ry="8.35" transform="translate(-211.46 263.11) rotate(-37.32)"/>
          <g>
            <circle class="cls-11" cx="292.95" cy="456.6" r="15.01"/>
            <path class="cls-10" d="m299.44,461.86h.14c.78,0,1.41.63,1.41,1.41v5.28h-2.97v-5.28c0-.78.63-1.41,1.41-1.41Z" transform="translate(-220.71 276.81) rotate(-37.32)"/>
            <path class="cls-10" d="m298.11,457.11c-1.35-.02-2.47,1.3-2.52,2.96-1.61-.39-3.18.34-3.52,1.65-.34,1.33.71,2.74,2.35,3.17,1.64.42,3.52.05,3.86-1.28,0,0,0,0,0,0,0,0,0,0,0,0,1.37.02,2.23-1.69,2.25-3.39.03-1.69-1.06-3.08-2.43-3.1Z"/>
            <circle class="cls-30" cx="292.95" cy="456.6" r="15.01"/>
            <rect class="cls-18" x="274.15" y="450.43" width="33.44" height="6.87" rx="3.27" ry="3.27" transform="translate(-215.61 269.25) rotate(-37.32)"/>
            <path class="cls-31" d="m304.58,447.14c.46-1.1.35-2.4-.42-3.41-1.13-1.48-3.21-1.78-4.71-.71-4.86-2.38-10.8-2.02-15.6,1.64-4.8,3.66-6.72,9.29-5.71,14.61-1.43,1.17-1.69,3.26-.56,4.73h0c.77,1.01,2,1.46,3.17,1.31.09.13.17.26.27.39,5.03,6.59,13.45,8.62,21.04,2.84,7.59-5.79,7.86-14.44,2.84-21.04-.1-.13-.2-.24-.3-.36Z"/>
          </g>
        </g>
        <g>
          <g>
            <path class="cls-15" d="m272,325.59c-12.21,5.37-57.27,16.54-77.58,10.43-15.73-4.73-22.66-16.12-23.58-21.79-1.32-8.16,3.66-17.44,12.7-23.63.82-.56,1.73-1.1,2.71-1.63,6.31-3.35,15.44-5.7,25.11-8.18,11.8-3.03,24.48-6.69,36.46-10.35,12.45-3.8,50.92-21.13,67.5,4.7,23.34,36.37-21.88,41.01-43.33,50.45Z"/>
            <path class="cls-7" d="m271.92,313.34c-12.21,5.37-57.27,16.54-77.58,10.43-12.07-3.63-18.94-10.12-21.9-16-1.54,3.55-2.16,2.99-1.6,6.46.91,5.67,7.84,17.06,23.58,21.79,20.3,6.11,65.37-5.06,77.58-10.43,19.38-8.52,58.16-13.14,48.25-40.78-6.59,14.49-33.29,21.92-48.32,28.53Z"/>
            <path class="cls-32" d="m272,325.59c-12.21,5.37-57.27,16.54-77.58,10.43-15.73-4.73-22.66-16.12-23.58-21.79-1.32-8.16,3.66-17.44,12.7-23.63.82-.56,1.73-1.1,2.71-1.63,6.31-3.35,15.44-5.7,25.11-8.18,11.8-3.03,24.48-6.69,36.46-10.35,12.45-3.8,50.92-21.13,67.5,4.7,23.34,36.37-21.88,41.01-43.33,50.45Z"/>
          </g>
          <path class="cls-2" d="m347.32,227.87s-19.86,10.54-43.13,19.19c-17.79,6.62-103.68,31.2-103.68,31.2,0,0,8.23,46.92,14.37,63.89,30.09,83.14,61.74,94.21,61.74,94.21,0,0,59.53-51.75,86.41-92.79,5.45-8.31,37.71-61.6,34.68-75.21-5.72-25.76-50.4-40.48-50.4-40.48Z"/>
          <g class="cls-35">
            <g>
              <path class="cls-13" d="m290.22,334.27l-.04,2.88-.02,1.55-.13,8.87-10.42-.15-.06,4.43,10.42.15,4.43.06.06-4.43.13-8.87,7.59.11-.13,8.87-.06,4.07v.37s13.22.19,13.22.19l-.09,6.52-35.67-.52-.06,4.43,35.67.52,3.85.06h.59s.16-10.94.16-10.94l.04-2.89.02-1.54-13.22-.19.13-8.87,8.79.13,3.85.06h.59s.17-11.6.17-11.6l7.76.11-.46,31.43v.98s-.06,3.45-.06,3.45l11.45.17,4.43.06,7.08.1c1.5-2.18,2.99-4.4,4.47-6.68l.42-29.12,7.76.11-.17,11.61h.59s1.98.04,1.98.04c.75-1.27,1.63-2.74,2.61-4.4h-.68s.1-7.19.1-7.19l.05-3.24.02-1.19-12.19-.18-2.66-.04-1.77-.03-.52,35.86-7.02-.1-4.43-.06-7.02-.1.52-35.86-1.77-.03-2.66-.04-12.19-.18-.02,1.19-.05,3.24-.1,7.18-8.79-.13.1-7.18.04-2.91.02-1.52-12.02-.17.12-8.21,44.46.65-.54,37.19,4.43.06.54-37.19,35.29.51c.8-1.45,1.6-2.92,2.39-4.4l-37.61-.55-4.43-.06-48.89-.71-.03,2.22-.03,2.21-.18,12.64,1.6.02,2.83.04,7.59.11-.1,7.18-12.02-.18Z"/>
              <path class="cls-13" d="m367.7,299.85l.1-6.52,13.22.19v-.37s.06-4.07.06-4.07l.13-8.87,7.59.11-.13,8.87-.06,2.78,2.68.04s1.06-2.43,1.89-4.43l.05-7.19.02-1.55.04-2.88-12.02-.18.1-7.18,7.59.11,2.83.04,1.6.02.15-10.12c-1.6-2.48-3.52-4.83-5.67-7.04l-43.12-.63-4.43-.06-30.71-.45c-1.11.45-2.23.89-3.36,1.31-2.08.77-5.02,1.78-8.58,2.95l42.59.62-.54,37.19,4.43.06.54-37.19,44.46.65-.12,8.21-12.02-.18-.02,1.52-.04,2.91-.1,7.18-8.79-.13.1-7.18.05-3.24.02-1.19-12.19-.18-2.66-.04-1.77-.03-.52,35.86-7.02-.1-4.43-.06-7.02-.1.52-35.86-1.77-.03-2.66-.04-12.19-.18-.02,1.19-.05,3.24-.1,7.18-8.79-.13.1-7.18.04-2.91.02-1.52-12.02-.18.11-7.57c-1.41.46-2.9.94-4.45,1.43l-.15,10.51,1.6.02,2.83.04,7.59.11-.1,7.18-12.02-.17-.04,2.88-.02,1.55-.13,8.87-10.42-.15-.06,4.43,10.42.15,4.43.06.06-4.43.13-8.87,7.59.11-.13,8.87-.06,4.07v.37s13.22.19,13.22.19l-.09,6.52-35.67-.52-.06,4.43,35.67.52,3.85.06h.59s.16-10.94.16-10.94l.04-2.89.02-1.54-13.22-.19.13-8.87,8.79.13,3.85.06h.59s.17-11.6.17-11.6l7.76.11-.46,31.43v.99s-.06,3.45-.06,3.45l11.45.17,4.43.06,11.45.17.05-3.45v-.98s.47-31.43.47-31.43l7.76.11-.17,11.61h.59s3.85.06,3.85.06l8.79.13-.13,8.87-13.22-.19-.02,1.54-.04,2.89-.16,10.95h.59s3.85.06,3.85.06l17.45.25c.76-1.47,1.5-2.94,2.22-4.4l-19.61-.29Z"/>
              <path class="cls-13" d="m344.86,244.14l11.45.17.05-3.45v-.98s.14-8.4.14-8.4c-1.64-.72-3.13-1.33-4.41-1.83l-.15,10.17-7.02-.1-4.43-.06-7.02-.1.02-1.63c-1.41.91-2.9,1.84-4.47,2.79l-.05,3.22,11.45.17,4.43.06Z"/>
              <path class="cls-13" d="m345.08,229.69c-1.03.81-2.41,1.86-4.08,3.08l4.03.06.05-3.14Z"/>
              <path class="cls-13" d="m288.83,429.6v.09s.07-.06.11-.09h-.11Z"/>
              <path class="cls-13" d="m302.12,418.51l-23.55-.34-.06,4.43,18.63.27c1.6-1.37,3.26-2.82,4.98-4.36Z"/>
              <path class="cls-13" d="m289.35,394.07l-.04,2.88-.02,1.55-.13,8.87-10.42-.15-.06,4.43,10.42.15,4.43.06.06-4.43.13-8.87,7.59.11-.13,8.87-.06,4.07v.37s7.94.12,7.94.12c1.47-1.4,2.96-2.86,4.48-4.37l-7.93-.12.13-8.87,8.79.13,3.85.06h.59s.17-11.6.17-11.6l7.76.11-.09,6.25c1.49-1.68,3-3.42,4.51-5.2l.08-5.42-1.77-.03-2.66-.04-12.19-.18-.02,1.19-.05,3.24-.1,7.18-8.79-.13.1-7.18.04-2.91.02-1.52-12.02-.18.12-8.21,44.46.65-.07,4.79c2.31-2.93,4.63-5.97,6.93-9.13l-2.36-.03-4.43-.06-48.89-.71-.03,2.22-.03,2.21-.18,12.64,1.6.02,2.83.04,7.59.11-.1,7.18-12.02-.18Z"/>
              <path class="cls-13" d="m216.41,308.94l-6.29-.09c.15,1.45.31,2.93.48,4.44l5.74.08-.49,33.56c.27,1.24.55,2.45.83,3.64l3.55.05.54-37.19,44.46.65-.12,8.21-12.02-.17-.02,1.52-.04,2.91-.1,7.18-8.79-.13.1-7.18.05-3.24.02-1.19-12.19-.18-2.66-.04-1.77-.03-.52,35.86-7.02-.1-1.6-.02c.47,1.57.96,3.05,1.47,4.46h.07s11.45.17,11.45.17l.05-3.45v-.99s.47-31.43.47-31.43l7.76.11-.17,11.61h.59s3.85.06,3.85.06l8.79.13-.13,8.87-13.22-.19-.02,1.54-.04,2.89-.16,10.95h.59s3.85.06,3.85.06l35.67.52.06-4.43-35.67-.52.09-6.52,13.22.19v-.37s.06-4.07.06-4.07l.13-8.87,7.59.11-.13,8.87-.06,4.43,4.43.06,10.42.15.06-4.43-10.42-.15.13-8.87.02-1.55.04-2.88-12.02-.17.1-7.18,7.59.11,2.83.04,1.6.02.18-12.64.03-2.21.03-2.22-48.89-.71-4.43-.06Z"/>
              <path class="cls-13" d="m270.19,278.61l.02-1.55.04-2.88-12.02-.18.1-7.04c-1.49.45-2.97.9-4.45,1.34l-.08,5.63-8.79-.13.04-2.86c-1.5.45-2.99.89-4.45,1.33l-.09,5.9h.59s3.85.06,3.85.06l8.79.13-.13,8.87-13.22-.19-.02,1.54-.04,2.89-.16,10.95h.59s3.85.06,3.85.06l35.67.52.06-4.43-35.67-.52.09-6.52,13.22.19v-.37s.06-4.07.06-4.07l.13-8.87,7.59.11-.13,8.87-.06,4.43,4.43.06,10.42.15.06-4.43-10.42-.15.13-8.87Z"/>
              <path class="cls-13" d="m221.3,278c-1.6.47-3.09.91-4.45,1.31l-.17,11.46,4.43.06.19-12.83Z"/>
              <path class="cls-13" d="m228.35,275.92l-.32,21.9-7.02-.1-4.43-.06-7.02-.1.24-16.17c-1.22.36-1.89.55-1.89.55,0,0,.44,8.36,1.54,20.05l7.07.1,4.43.06,11.45.17.05-3.45v-.98s.35-23.28.35-23.28c-1.53.45-3.02.89-4.45,1.32Z"/>
              <path class="cls-13" d="m268.75,266.97l1.6.02.05-3.7c-3.81,1.16-7.72,2.35-11.62,3.53l7.13.1,2.83.04Z"/>
              <path class="cls-13" d="m267.98,430.39l.02-1.09h-.98c.33.36.65.73.96,1.09Z"/>
              <path class="cls-13" d="m264.18,386.52l2.83.04,1.6.02.18-12.64.03-2.21.03-2.22-45.76-.67c.17.29.34.58.51.85.78,1.23,1.54,2.43,2.31,3.63l38.44.56-.12,8.21-12.02-.18-.02,1.52-.04,2.91-.1,7.18-8.79-.13.1-7.18.05-3.24.02-1.19-12.11-.18c1.01,1.52,2.01,3.02,2.99,4.48l4.62.07-.1,6.54c1.22,1.76,2.43,3.48,3.6,5.13h.76s8.79.14,8.79.14l-.13,8.87-2.88-.04c1.16,1.56,2.29,3.05,3.39,4.48l3.87.06v-.37s.06-4.07.06-4.07l.13-8.87,7.59.11-.13,8.87-.06,4.43,4.43.06,10.42.15.06-4.43-10.42-.15.13-8.87.02-1.55.04-2.88-12.02-.18.1-7.18,7.59.11Z"/>
              <path class="cls-13" d="m278.58,418.16l-21.07-.31c1.27,1.59,2.48,3.08,3.63,4.49l17.37.25.06-4.43Z"/>
            </g>
            <g>
              <path class="cls-16" d="m290.22,334.27l-.04,2.88-.02,1.55-.13,8.87-10.42-.15-.06,4.43,10.42.15,4.43.06.06-4.43.13-8.87,7.59.11-.13,8.87-.06,4.07v.37s13.22.19,13.22.19l-.09,6.52-35.67-.52-.06,4.43,35.67.52,3.85.06h.59s.16-10.94.16-10.94l.04-2.89.02-1.54-13.22-.19.13-8.87,8.79.13,3.85.06h.59s.17-11.6.17-11.6l7.76.11-.46,31.43v.98s-.06,3.45-.06,3.45l11.45.17,4.43.06,7.08.1c1.5-2.18,2.99-4.4,4.47-6.68l.42-29.12,7.76.11-.17,11.61h.59s1.98.04,1.98.04c.75-1.27,1.63-2.74,2.61-4.4h-.68s.1-7.19.1-7.19l.05-3.24.02-1.19-12.19-.18-2.66-.04-1.77-.03-.52,35.86-7.02-.1-4.43-.06-7.02-.1.52-35.86-1.77-.03-2.66-.04-12.19-.18-.02,1.19-.05,3.24-.1,7.18-8.79-.13.1-7.18.04-2.91.02-1.52-12.02-.17.12-8.21,44.46.65-.54,37.19,4.43.06.54-37.19,35.29.51c.8-1.45,1.6-2.92,2.39-4.4l-37.61-.55-4.43-.06-48.89-.71-.03,2.22-.03,2.21-.18,12.64,1.6.02,2.83.04,7.59.11-.1,7.18-12.02-.18Z"/>
              <path class="cls-16" d="m367.7,299.85l.1-6.52,13.22.19v-.37s.06-4.07.06-4.07l.13-8.87,7.59.11-.13,8.87-.06,2.78,2.68.04s1.06-2.43,1.89-4.43l.05-7.19.02-1.55.04-2.88-12.02-.18.1-7.18,7.59.11,2.83.04,1.6.02.15-10.12c-1.6-2.48-3.52-4.83-5.67-7.04l-43.12-.63-4.43-.06-30.71-.45c-1.11.45-2.23.89-3.36,1.31-2.08.77-5.02,1.78-8.58,2.95l42.59.62-.54,37.19,4.43.06.54-37.19,44.46.65-.12,8.21-12.02-.18-.02,1.52-.04,2.91-.1,7.18-8.79-.13.1-7.18.05-3.24.02-1.19-12.19-.18-2.66-.04-1.77-.03-.52,35.86-7.02-.1-4.43-.06-7.02-.1.52-35.86-1.77-.03-2.66-.04-12.19-.18-.02,1.19-.05,3.24-.1,7.18-8.79-.13.1-7.18.04-2.91.02-1.52-12.02-.18.11-7.57c-1.41.46-2.9.94-4.45,1.43l-.15,10.51,1.6.02,2.83.04,7.59.11-.1,7.18-12.02-.17-.04,2.88-.02,1.55-.13,8.87-10.42-.15-.06,4.43,10.42.15,4.43.06.06-4.43.13-8.87,7.59.11-.13,8.87-.06,4.07v.37s13.22.19,13.22.19l-.09,6.52-35.67-.52-.06,4.43,35.67.52,3.85.06h.59s.16-10.94.16-10.94l.04-2.89.02-1.54-13.22-.19.13-8.87,8.79.13,3.85.06h.59s.17-11.6.17-11.6l7.76.11-.46,31.43v.99s-.06,3.45-.06,3.45l11.45.17,4.43.06,11.45.17.05-3.45v-.98s.47-31.43.47-31.43l7.76.11-.17,11.61h.59s3.85.06,3.85.06l8.79.13-.13,8.87-13.22-.19-.02,1.54-.04,2.89-.16,10.95h.59s3.85.06,3.85.06l17.45.25c.76-1.47,1.5-2.94,2.22-4.4l-19.61-.29Z"/>
              <path class="cls-16" d="m344.86,244.14l11.45.17.05-3.45v-.98s.14-8.4.14-8.4c-1.64-.72-3.13-1.33-4.41-1.83l-.15,10.17-7.02-.1-4.43-.06-7.02-.1.02-1.63c-1.41.91-2.9,1.84-4.47,2.79l-.05,3.22,11.45.17,4.43.06Z"/>
              <path class="cls-16" d="m345.08,229.69c-1.03.81-2.41,1.86-4.08,3.08l4.03.06.05-3.14Z"/>
              <path class="cls-16" d="m288.83,429.6v.09s.07-.06.11-.09h-.11Z"/>
              <path class="cls-16" d="m302.12,418.51l-23.55-.34-.06,4.43,18.63.27c1.6-1.37,3.26-2.82,4.98-4.36Z"/>
              <path class="cls-16" d="m289.35,394.07l-.04,2.88-.02,1.55-.13,8.87-10.42-.15-.06,4.43,10.42.15,4.43.06.06-4.43.13-8.87,7.59.11-.13,8.87-.06,4.07v.37s7.94.12,7.94.12c1.47-1.4,2.96-2.86,4.48-4.37l-7.93-.12.13-8.87,8.79.13,3.85.06h.59s.17-11.6.17-11.6l7.76.11-.09,6.25c1.49-1.68,3-3.42,4.51-5.2l.08-5.42-1.77-.03-2.66-.04-12.19-.18-.02,1.19-.05,3.24-.1,7.18-8.79-.13.1-7.18.04-2.91.02-1.52-12.02-.18.12-8.21,44.46.65-.07,4.79c2.31-2.93,4.63-5.97,6.93-9.13l-2.36-.03-4.43-.06-48.89-.71-.03,2.22-.03,2.21-.18,12.64,1.6.02,2.83.04,7.59.11-.1,7.18-12.02-.18Z"/>
              <path class="cls-16" d="m216.41,308.94l-6.29-.09c.15,1.45.31,2.93.48,4.44l5.74.08-.49,33.56c.27,1.24.55,2.45.83,3.64l3.55.05.54-37.19,44.46.65-.12,8.21-12.02-.17-.02,1.52-.04,2.91-.1,7.18-8.79-.13.1-7.18.05-3.24.02-1.19-12.19-.18-2.66-.04-1.77-.03-.52,35.86-7.02-.1-1.6-.02c.47,1.57.96,3.05,1.47,4.46h.07s11.45.17,11.45.17l.05-3.45v-.99s.47-31.43.47-31.43l7.76.11-.17,11.61h.59s3.85.06,3.85.06l8.79.13-.13,8.87-13.22-.19-.02,1.54-.04,2.89-.16,10.95h.59s3.85.06,3.85.06l35.67.52.06-4.43-35.67-.52.09-6.52,13.22.19v-.37s.06-4.07.06-4.07l.13-8.87,7.59.11-.13,8.87-.06,4.43,4.43.06,10.42.15.06-4.43-10.42-.15.13-8.87.02-1.55.04-2.88-12.02-.17.1-7.18,7.59.11,2.83.04,1.6.02.18-12.64.03-2.21.03-2.22-48.89-.71-4.43-.06Z"/>
              <path class="cls-16" d="m270.19,278.61l.02-1.55.04-2.88-12.02-.18.1-7.04c-1.49.45-2.97.9-4.45,1.34l-.08,5.63-8.79-.13.04-2.86c-1.5.45-2.99.89-4.45,1.33l-.09,5.9h.59s3.85.06,3.85.06l8.79.13-.13,8.87-13.22-.19-.02,1.54-.04,2.89-.16,10.95h.59s3.85.06,3.85.06l35.67.52.06-4.43-35.67-.52.09-6.52,13.22.19v-.37s.06-4.07.06-4.07l.13-8.87,7.59.11-.13,8.87-.06,4.43,4.43.06,10.42.15.06-4.43-10.42-.15.13-8.87Z"/>
              <path class="cls-16" d="m221.3,278c-1.6.47-3.09.91-4.45,1.31l-.17,11.46,4.43.06.19-12.83Z"/>
              <path class="cls-16" d="m228.35,275.92l-.32,21.9-7.02-.1-4.43-.06-7.02-.1.24-16.17c-1.22.36-1.89.55-1.89.55,0,0,.44,8.36,1.54,20.05l7.07.1,4.43.06,11.45.17.05-3.45v-.98s.35-23.28.35-23.28c-1.53.45-3.02.89-4.45,1.32Z"/>
              <path class="cls-16" d="m268.75,266.97l1.6.02.05-3.7c-3.81,1.16-7.72,2.35-11.62,3.53l7.13.1,2.83.04Z"/>
              <path class="cls-16" d="m267.98,430.39l.02-1.09h-.98c.33.36.65.73.96,1.09Z"/>
              <path class="cls-16" d="m264.18,386.52l2.83.04,1.6.02.18-12.64.03-2.21.03-2.22-45.76-.67c.17.29.34.58.51.85.78,1.23,1.54,2.43,2.31,3.63l38.44.56-.12,8.21-12.02-.18-.02,1.52-.04,2.91-.1,7.18-8.79-.13.1-7.18.05-3.24.02-1.19-12.11-.18c1.01,1.52,2.01,3.02,2.99,4.48l4.62.07-.1,6.54c1.22,1.76,2.43,3.48,3.6,5.13h.76s8.79.14,8.79.14l-.13,8.87-2.88-.04c1.16,1.56,2.29,3.05,3.39,4.48l3.87.06v-.37s.06-4.07.06-4.07l.13-8.87,7.59.11-.13,8.87-.06,4.43,4.43.06,10.42.15.06-4.43-10.42-.15.13-8.87.02-1.55.04-2.88-12.02-.18.1-7.18,7.59.11Z"/>
              <path class="cls-16" d="m278.58,418.16l-21.07-.31c1.27,1.59,2.48,3.08,3.63,4.49l17.37.25.06-4.43Z"/>
            </g>
          </g>
          <path class="cls-11" d="m250.85,322.27c-5.91-20.46-9.71-38.58-11.56-54.77-22.78,4.45-36.96,7.71-36.96,7.71,0,0,1.77,36.25,10.38,66.02,18.81,65.07,62.56,93.76,62.56,93.76,0,0,13.51-9.37,31.04-24.24-11.65-9.79-41.77-41.14-55.45-88.47Z"/>
          <path class="cls-20" d="m304.42,410.57c-11.65-9.79-39.89-40.97-53.57-88.31-5.91-20.46-9.39-35.95-11.24-52.15"/>
          <path class="cls-32" d="m342.37,230.39c-63.76,33.49-141.87,47.86-141.87,47.86,0,0,4.81,39.25,14.37,68.73,20.89,64.43,61.15,92,61.15,92,0,0,96.72-86.3,114.91-134.89"/>
        </g>
        <g>
          <rect class="cls-17" x="341.94" y="137.89" width="4.8" height="38.18" transform="translate(-27.01 84.11) rotate(-13.41)"/>
          <path class="cls-17" d="m368.22,217.48c-1.88-8.04-1.68-22.02-4.84-30.62-4.14-11.27-9.35-14.61-13.5-14.72-.52-.07-1.07-.03-1.68.11-.07.02-.14.04-.21.06-.07.01-.14.03-.21.05-.81.19-1.45.47-1.96.9-3.47,2.15-6.32,7.52-4.99,18.99,1.06,9.1,7.54,21.49,9.49,29.51,1.17,4.81.7,7.76.15,9.35-.29.83.29,1.68,1.19,1.81l3.6.54-.16.14.56,2.33.43-.1,2-.48c.75-.18,1.51.18,1.79.84l.36.87.43-.1,5.2-1.24.43-.1-.07-.94c-.05-.72.47-1.38,1.22-1.56l.48-.11c.84-.2,1.37-.99,1.19-1.77h0c-.13-.56.1-1.15.61-1.51l2.36-1.67c.75-.53.88-1.55.25-2.16-1.22-1.17-2.96-3.59-4.09-8.41Z"/>
          <path class="cls-12" d="m354.13,178.01c4.11,4.72,8.64,13.92,7.61,23.39-.13,2.24-.11,4.45.12,6.66.78,6.63,2.88,13.1,6.16,19.01.32.5-.67,1.04-1.03.52-5.25-7.78-8.32-16.7-8.17-26.04-.12-4.4-.74-8.6-2.11-12.75-1.3-3.97-2.26-6.94-5.16-10.59-2.59-3.26.38-2.75,2.59-.21Z"/>
          <path class="cls-12" d="m360.55,233.31c-.36,1.41-1.11.33-.97-.47.41-2.82.07-5.99-.41-8.94-.55-3.02-1.42-5.97-2.42-8.85-1.21-3.49.87-4.33,1.8-.67,0,0,3.57,12.77,2.01,18.93Z"/>
          <path class="cls-12" d="m354.95,223.31c.16,2.06.82,8.67-.07,8.37-.61-.21-.45-2.65-.53-3.93-.56-6.61-1.95-13.44-4.41-19.61-1-2.43-1.94-4.65-2.98-6.92-1.3-2.81.17-4.19,1.48-1.88,0,0,5.48,10.71,6.52,23.97Z"/>
          <rect class="cls-17" x="345.42" y="166.49" width="4.94" height="10.72" rx="2.47" ry="2.47" transform="translate(261.37 550.1) rotate(-103.41)"/>
          <rect class="cls-17" x="341.78" y="151.25" width="4.94" height="10.72" rx="2.47" ry="2.47" transform="translate(271.72 527.8) rotate(-103.41)"/>
          <rect class="cls-17" x="339.52" y="152.58" width="13.47" height="23.21" rx="6.73" ry="6.73" transform="translate(266.83 539.08) rotate(-103.41)"/>
          <g>
            <path class="cls-12" d="m346.96,158.52c3.16.82,4.83,4.35,4.19,7.41-.1.66-.87,3.56-1.89,2.92-.21-.17-.24-.46-.11-.67,1.42-3.02.65-7.19-2.56-8.72-.55-.27-.21-1.12.37-.94h0Z"/>
            <path class="cls-12" d="m343.83,160.11c-2.18,2.82-.98,6.89,1.65,8.94.54.32.11,1.16-.46.9-2.78-1.41-4.46-4.88-3.58-7.9.21-.72,1.5-3.34,2.35-2.59.17.18.18.46.04.65h0Z"/>
          </g>
          <g>
            <g id="_リピートラジアル_" data-name="&amp;lt;リピートラジアル&amp;gt;">
              <path class="cls-17" d="m340.33,139.32c4.03-.96,8.19,1.99,9.29,6.58,1.09,4.59-1.29,9.1-5.32,10.06-4.03.96-8.19-1.99-9.29-6.58-1.09-4.59,1.29-9.1,5.32-10.06Zm2.67,11.21c.89-.21,1.59-1.63,1.19-3.33s-1.68-2.65-2.56-2.44c-.89.21-1.59,1.63-1.19,3.33s1.68,2.65,2.56,2.44Z"/>
            </g>
            <g id="_リピートラジアル_-2" data-name="&amp;lt;リピートラジアル&amp;gt;">
              <path class="cls-17" d="m336.05,138.64c3.53,2.17,4.39,7.2,1.92,11.22-2.47,4.02-7.35,5.52-10.88,3.35-3.53-2.17-4.39-7.2-1.92-11.22,2.47-4.02,7.35-5.52,10.88-3.35Zm-6.04,9.81c.78.48,2.28-.03,3.2-1.52s.69-3.06-.09-3.54c-.78-.48-2.28.03-3.2,1.52s-.69,3.06.09,3.54Z"/>
            </g>
            <g id="_リピートラジアル_-3" data-name="&amp;lt;リピートラジアル&amp;gt;">
              <path class="cls-17" d="m333.5,135.12c.96,4.03-1.99,8.19-6.58,9.29s-9.1-1.29-10.06-5.32c-.96-4.03,1.99-8.19,6.58-9.29s9.1,1.29,10.06,5.32Zm-11.21,2.67c.21.89,1.63,1.59,3.33,1.19s2.65-1.68,2.44-2.56c-.21-.89-1.63-1.59-3.33-1.19s-2.65,1.68-2.44,2.56Z"/>
            </g>
            <g id="_リピートラジアル_-4" data-name="&amp;lt;リピートラジアル&amp;gt;">
              <path class="cls-17" d="m334.19,130.83c-2.17,3.53-7.2,4.39-11.22,1.92-4.02-2.47-5.52-7.35-3.35-10.88,2.17-3.53,7.2-4.39,11.22-1.92,4.02,2.47,5.52,7.35,3.35,10.88Zm-9.81-6.04c-.48.78.03,2.28,1.52,3.2s3.06.69,3.54-.09c.48-.78-.03-2.28-1.52-3.2s-3.06-.69-3.54.09Z"/>
            </g>
            <g id="_リピートラジアル_-5" data-name="&amp;lt;リピートラジアル&amp;gt;">
              <path class="cls-17" d="m337.7,128.29c-4.03.96-8.19-1.99-9.29-6.58s1.29-9.1,5.32-10.06c4.03-.96,8.19,1.99,9.29,6.58s-1.29,9.1-5.32,10.06Zm-2.67-11.21c-.89.21-1.59,1.63-1.19,3.33s1.68,2.65,2.56,2.44c.89-.21,1.59-1.63,1.19-3.33s-1.68-2.65-2.56-2.44Z"/>
            </g>
            <g id="_リピートラジアル_-6" data-name="&amp;lt;リピートラジアル&amp;gt;">
              <path class="cls-17" d="m341.99,128.97c-3.53-2.17-4.39-7.2-1.92-11.22,2.47-4.02,7.35-5.52,10.88-3.35,3.53,2.17,4.39,7.2,1.92,11.22-2.47,4.02-7.35,5.52-10.88,3.35Zm6.04-9.81c-.78-.48-2.28.03-3.2,1.52s-.69,3.06.09,3.54c.78.48,2.28-.03,3.2-1.52s.69-3.06-.09-3.54Z"/>
            </g>
            <g id="_リピートラジアル_-7" data-name="&amp;lt;リピートラジアル&amp;gt;">
              <path class="cls-17" d="m344.53,132.49c-.96-4.03,1.99-8.19,6.58-9.29,4.59-1.09,9.1,1.29,10.06,5.32.96,4.03-1.99,8.19-6.58,9.29-4.59,1.09-9.1-1.29-10.06-5.32Zm11.21-2.67c-.21-.89-1.63-1.59-3.33-1.19s-2.65,1.68-2.44,2.56c.21.89,1.63,1.59,3.33,1.19s2.65-1.68,2.44-2.56Z"/>
            </g>
            <g id="_リピートラジアル_-8" data-name="&amp;lt;リピートラジアル&amp;gt;">
              <path class="cls-17" d="m343.85,136.78c2.17-3.53,7.2-4.39,11.22-1.92,4.02,2.47,5.52,7.35,3.35,10.88-2.17,3.53-7.2,4.39-11.22,1.92-4.02-2.47-5.52-7.35-3.35-10.88Zm9.81,6.04c.48-.78-.03-2.28-1.52-3.2s-3.06-.69-3.54.09c-.48.78.03,2.28,1.52,3.2s3.06.69,3.54-.09Z"/>
            </g>
          </g>
          <g>
            <g>
              <rect class="cls-17" x="340.37" y="126.75" width="4.12" height="12.43" rx="1.8" ry="1.8" transform="translate(49.77 354.98) rotate(-58.41)"/>
              <rect class="cls-17" x="342.96" y="122.53" width="4.12" height="12.43" rx="1.8" ry="1.8" transform="translate(54.6 355.18) rotate(-58.41)"/>
            </g>
            <rect class="cls-17" x="327.6" y="125.72" width="12.43" height="4.12" rx="2.06" ry="2.06" transform="translate(50.09 345.18) rotate(-58.41)"/>
            <rect class="cls-17" x="331.81" y="128.31" width="12.43" height="4.12" rx="2.06" ry="2.06" transform="translate(49.89 350) rotate(-58.41)"/>
            <g>
              <rect class="cls-17" x="333.52" y="128.32" width="4.12" height="12.43" rx="1.8" ry="1.8" transform="translate(625.99 -80.81) rotate(121.59)"/>
              <rect class="cls-17" x="330.93" y="132.54" width="4.12" height="12.43" rx="1.8" ry="1.8" transform="translate(625.63 -72.19) rotate(121.59)"/>
            </g>
            <g>
              <rect class="cls-17" x="342.13" y="133.51" width="4.12" height="12.43" rx="1.8" ry="1.8" transform="translate(564.17 439.06) rotate(-148.41)"/>
              <rect class="cls-17" x="337.92" y="130.92" width="4.12" height="12.43" rx="1.8" ry="1.8" transform="translate(557.73 432.05) rotate(-148.41)"/>
            </g>
          </g>
        </g>
        <path class="cls-10" d="m278.42,449.98c-3.8-23.32-32.65-79.14-65.42-61.71-26.07,17.6-21.83,51.98-17.9,77.82,2.97,27.27-6.52,71.97,45.55,65.22,13.56-1.76,24.99-8.47,30.63-20.65,7.82-20.49,12.06-35.94,7.14-60.69Z"/>
        <path class="cls-24" d="m207.95,389.03s-19.7,19.51-18.36,55.44c.94,25.21,11.64,9.79,10.59,51.75-.54,21.72,14.29,32.43,35.8,28.24,12.27-2.39,21.68-13.4,26.48-52.82.51-4.19,2.12-12.59,0-30.5-4.28-36.25-29.2-72.42-54.51-52.1Z"/>
        <path class="cls-4" d="m217.64,526.28l11.39.75c25.49,1.69,24.84-35.74,24.84-35.74l-56.54-3.17s-2.07,36.67,20.31,38.15Z"/>
        <path class="cls-10" d="m260.46,487.59c-.27-.98-1.24-1.7-2.38-1.76l-54.52-3.15c-.5-.03-1,.07-1.44.29l-6.79,2.87s-2.06.57-2,2.06c.07,1.66-1.99,40.65,24.04,42.37l11.39.75c.65.04,1.3.07,1.93.06,6.24,0,15.81,1.08,23.17-10.54,6.24-9.83,6.64-32.79,6.59-32.97Zm-31.17,35.45l-11.39-.75c-14.27-.94-16.36-21.16-16.6-29.93l48.42,2.71c-.42,6-2.1,17.81-8.65,24.03-3.12,2.97-6.98,4.26-11.79,3.94Z"/>
        <path class="cls-10" d="m261.11,465.03c-.66.46-1.49.48-2.29.36-27.57-3.95-58.74-1.18-59.14-1.08-7.02,1.69-9.71-11.57-9.71-11.57.27-.52,1.65-2.48,2.2-2.71.92-.38,9.29-6.07,29.22-6.78,18.82-.67,29.73,2.3,39.09,5.6,1.01.36,1.68,1.28,1.68,2.3v11.89c0,.78-.39,1.52-1.05,1.98Z"/>
        <g>
          <g>
            <circle class="cls-11" cx="305.5" cy="25.53" r="14.25"/>
            <path class="cls-14" d="m300.95,40.09c-3.45-1.07-6.38-3.31-8.34-6.39-2.18-3.44-2.89-7.52-2-11.5,1.84-8.2,10.01-13.38,18.22-11.55,8.2,1.85,13.38,10.01,11.55,18.22h0c-1.84,8.21-10.01,13.38-18.22,11.55-.41-.09-.81-.2-1.21-.32Zm8.49-27.21c-.34-.11-.69-.2-1.05-.28-7.13-1.6-14.23,2.9-15.83,10.03-.77,3.45-.16,7,1.74,9.99,1.89,2.99,4.84,5.06,8.29,5.83,7.13,1.6,14.23-2.9,15.83-10.03h0c.77-3.45.16-7-1.74-9.99-1.7-2.68-4.24-4.62-7.24-5.55Z"/>
          </g>
          <path class="cls-34" d="m292.01,37.18l-3.26-5.55c-.18-.3-.5-.49-.84-.49-.35,0-.67.17-.86.46l-3.81,5.97c-.2.32-.21.72-.02,1.05.13.22.33.38.57.45.11.04.23.05.36.04l7.07-.42c.35-.02.66-.22.82-.53s.16-.68-.02-.98Z"/>
          <path class="cls-34" d="m289.35,18.01c.09-.34,0-.7-.25-.95-.24-.25-.6-.36-.94-.28l-6.92,1.52c-.37.08-.66.36-.75.72-.09.36.02.75.3,1l5.3,4.7c.11.1.23.17.37.21.19.06.39.06.59,0,.33-.1.59-.37.68-.7l1.62-6.23Z"/>
          <path class="cls-34" d="m299.89,7.95c0-.35-.17-.67-.46-.86l-5.97-3.81c-.32-.2-.72-.21-1.05-.02-.32.19-.51.55-.49.92l.42,7.07c.02.35.22.66.53.82.06.03.12.05.17.07.27.08.56.05.8-.09l5.55-3.26c.3-.18.49-.5.49-.84Z"/>
          <path class="cls-34" d="m314.25,8.2l-1.52-6.92c-.08-.37-.39-.67-.72-.75-.36-.09-.75.02-1,.3l-4.7,5.29c-.23.26-.31.62-.21.95.1.32.34.57.66.66.01,0,.03,0,.04.01l6.23,1.62c.34.09.7,0,.95-.25s.36-.6.28-.94Z"/>
          <path class="cls-34" d="m327.78,12.46c-.19-.32-.55-.51-.92-.49l-7.07.42c-.35.02-.66.22-.82.53s-.16.68.02.98l3.26,5.55c.13.22.33.38.57.45.09.03.18.04.28.05.35,0,.67-.17.86-.46l3.81-5.97c.2-.32.21-.72.02-1.05Z"/>
          <path class="cls-34" d="m330.2,31.04l-5.3-4.7c-.26-.23-.62-.31-.95-.21-.33.1-.59.37-.68.71l-1.62,6.23c-.09.34,0,.7.25.95.12.12.27.21.42.26s.34.06.51.02l6.92-1.52c.37-.08.66-.36.75-.72.09-.36-.02-.75-.3-1Z"/>
          <path class="cls-34" d="m319.07,46.89l-.42-7.07c-.02-.35-.22-.66-.53-.82-.31-.16-.68-.16-.98.02l-5.55,3.26c-.3.18-.49.5-.49.84,0,.35.17.67.46.86l5.97,3.81c.08.05.16.09.24.11.26.08.56.05.8-.09.32-.19.51-.55.49-.92Z"/>
          <path class="cls-34" d="m304.9,43.98c-.1-.33-.39-.6-.7-.68l-6.23-1.62c-.34-.09-.7,0-.95.25s-.36.6-.28.94l1.52,6.91c.08.35.34.63.68.74.01,0,.03,0,.04.01.36.09.75-.02,1-.3l4.7-5.29c.23-.26.31-.62.21-.95Z"/>
        </g>
      </g>
    </g>
  </g>
</svg>